<?xml version="1.0" encoding="utf-8"?>
<!-- Generator: Adobe Illustrator 25.0.0, SVG Export Plug-In . SVG Version: 6.00 Build 0)  -->
<svg version="1.1" xmlns="http://www.w3.org/2000/svg" xmlns:xlink="http://www.w3.org/1999/xlink" x="0px" y="0px"
	 viewBox="0 0 625 500" style="enable-background:new 0 0 625 500;" xml:space="preserve">
<style type="text/css">
	.st0{display:none;}
	.st1{display:inline;fill-rule:evenodd;clip-rule:evenodd;fill:#63A98D;}
	.st2{display:inline;fill-rule:evenodd;clip-rule:evenodd;fill:#1B222D;}
	.st3{fill-rule:evenodd;clip-rule:evenodd;fill:#FFFFFF;}
	.st4{fill-rule:evenodd;clip-rule:evenodd;fill:#92D99C;}
	.st5{fill-rule:evenodd;clip-rule:evenodd;fill:#63A98D;}
	.st6{fill-rule:evenodd;clip-rule:evenodd;fill:#1B222D;}
	.st7{fill-rule:evenodd;clip-rule:evenodd;fill:#EBF0FD;}
	.st8{fill-rule:evenodd;clip-rule:evenodd;fill:#839AD5;}
	.st9{fill-rule:evenodd;clip-rule:evenodd;fill:#6862C7;}
	.st10{fill-rule:evenodd;clip-rule:evenodd;fill:#A8C3DF;}
	.st11{fill-rule:evenodd;clip-rule:evenodd;fill:#E07077;}
	.st12{fill-rule:evenodd;clip-rule:evenodd;fill:#A45066;}
	.st13{fill-rule:evenodd;clip-rule:evenodd;fill:#F6E264;}
</style>
<g id="BACKGROUND" class="st0">
	<rect class="st1" width="625" height="500"/>
	<path class="st2" d="M211.51,384.29l-32.82,67.98c0,0-2.91,6.07,5.45,5.89c8.36-0.18,277.09,7.87,282.71,8.06
		c5.61,0.19,6.87-3.43,3.41-10.71c-3.13-6.61-23.32-53.96-27.06-62.74c-0.37-0.87-1.17-1.42-2.12-1.45l-227.33-8.37
		C212.78,382.91,211.93,383.42,211.51,384.29z"/>
</g>
<g id="OBJECTS">
	<g>
		<path class="st3" d="M458.19,200.61c0.04-0.04,4.41-4.96,12.04-11.9c4.75,1.6,27.38,8.6,27.27-3.35
			c-0.1-9.83-14.05-5.02-21.41-1.8c3.53-2.99,7.5-6.19,11.87-9.42c5.53,1.93,26.18,8.47,25.86-1.46
			c-0.33-10.27-14.99-4.91-19.73-2.91c3.83-2.63,7.9-5.24,12.18-7.73c4.35,1.91,20.95,8.6,22.21-0.31
			c1.12-7.93-9.71-5.39-14.69-3.82c2.45-1.27,4.96-2.48,7.51-3.64c9.56,1.44,32.62-3.49,24.02-11.87c-7.49-7.3-19.98,5.39-24.08,10
			c-2.89,1.29-5.72,2.66-8.48,4.09c3.05-5.14,9.29-17.3-0.38-16.28c-10.77,1.13-8.12,16.79-7.33,20.54c-3.48,2.03-6.82,4.14-10,6.28
			c4.38-6.5,12.21-20.26,0.99-21.58c-13.52-1.59-10.16,23.45-9.51,27.6c-5.12,3.81-9.7,7.56-13.64,10.99
			c4.19-5.69,17.06-24.5,3.52-23.8c-14.14,0.73-8.73,22.32-7.33,27.18c-7.7,7-12.12,11.97-12.16,12.01L458.19,200.61z"/>
		<path class="st4" d="M354.64,236.06c-0.03-0.04-3.33-5.06-7.65-13.43c2.53-3.81,14.06-22.12,3.49-24.84
			c-8.69-2.24-7.75,11.2-6.65,18.45c-1.81-3.82-3.69-8.08-5.51-12.69c3-4.42,13.66-21.08,4.82-23.15
			c-9.14-2.14-7.88,12.07-7.23,16.72c-1.42-4-2.75-8.21-3.94-12.57c2.72-3.38,12.54-16.45,4.98-19.66
			c-6.73-2.86-7.05,7.29-6.84,12.05c-0.54-2.46-1.02-4.96-1.43-7.49c3.53-8.1,4.63-29.59-4.79-23.99
			c-8.21,4.88,0.03,18.89,3.13,23.6c0.45,2.86,0.99,5.68,1.6,8.45c-3.82-3.9-13.06-12.28-14.45-3.51
			c-1.55,9.77,12.89,11.13,16.38,11.31c0.97,3.55,2.04,6.99,3.17,10.31c-4.7-5.4-14.98-15.55-18.8-5.97
			c-4.6,11.55,18.28,14.5,22.09,14.91c2.15,5.41,4.38,10.34,6.47,14.62c-4.03-5.04-17.57-20.83-20.15-8.73
			c-2.69,12.64,17.62,12.98,22.24,12.89c4.36,8.45,7.7,13.52,7.72,13.56L354.64,236.06z"/>
		<g>
			<path class="st4" d="M399.97,356.23c0.04-0.03,5.06-3.33,13.43-7.65c3.81,2.53,22.12,14.06,24.84,3.49
				c2.24-8.69-11.2-7.75-18.45-6.65c3.82-1.81,8.08-3.69,12.69-5.51c4.42,3,21.08,13.66,23.15,4.82c2.14-9.14-12.07-7.88-16.72-7.23
				c4-1.42,8.21-2.75,12.57-3.94c3.38,2.72,16.45,12.54,19.66,4.98c2.86-6.73-7.29-7.05-12.05-6.84c2.46-0.54,4.96-1.02,7.49-1.43
				c8.1,3.53,29.59,4.63,23.98-4.79c-4.88-8.21-18.89,0.03-23.6,3.13c-2.86,0.45-5.68,0.99-8.45,1.6
				c3.9-3.82,12.28-13.06,3.51-14.45c-9.77-1.55-11.13,12.89-11.31,16.38c-3.55,0.97-6.99,2.04-10.31,3.17
				c5.4-4.7,15.55-14.98,5.97-18.8c-11.55-4.6-14.5,18.28-14.91,22.09c-5.41,2.15-10.34,4.38-14.62,6.47
				c5.04-4.03,20.83-17.57,8.73-20.15c-12.64-2.69-12.98,17.62-12.89,22.24c-8.45,4.36-13.52,7.69-13.56,7.72L399.97,356.23z"/>
			<path class="st5" d="M399.97,356.23c0.04-0.03,5.06-3.33,13.43-7.65c1.41,0.94,4.82,3.11,8.68,4.94
				c-0.29-4.74,3.89-7.57,6.27-8.79c-3-0.02-6.13,0.33-8.56,0.7c2.16-1.02,4.45-2.07,6.88-3.11c-0.15-0.49-0.19-1.06-0.17-1.64
				c-3.49,1.49-6.73,2.99-9.66,4.42c2.23-1.78,6.56-5.42,9.65-9.15c-3.03-0.65-2.01-6.57-0.79-10.97c-0.04-0.01-0.08-0.02-0.12-0.03
				c-12.64-2.69-12.98,17.62-12.89,22.24c-8.45,4.36-13.52,7.69-13.56,7.72L399.97,356.23z"/>
		</g>
		<g>
			<path class="st4" d="M200.86,347.87c-0.04-0.03-4.99-3.45-13.25-7.94c-3.86,2.45-22.42,13.56-24.91,2.93
				c-2.04-8.74,11.37-7.5,18.6-6.23c-3.78-1.89-8-3.87-12.57-5.79c-4.48,2.91-21.38,13.18-23.25,4.31
				c-1.93-9.18,12.23-7.61,16.87-6.85c-3.97-1.5-8.14-2.93-12.48-4.21c-3.44,2.64-16.72,12.17-19.77,4.54
				c-2.71-6.79,7.44-6.88,12.2-6.57c-2.45-0.59-4.93-1.13-7.45-1.6c-8.17,3.34-29.69,3.97-23.87-5.32
				c5.07-8.1,18.89,0.45,23.52,3.66c2.84,0.52,5.65,1.12,8.41,1.79c-3.82-3.9-11.99-13.33-3.19-14.52
				c9.8-1.33,10.84,13.13,10.95,16.63c3.52,1.05,6.94,2.2,10.23,3.4c-5.3-4.82-15.22-15.32-5.55-18.92
				c11.65-4.34,14.09,18.6,14.41,22.42c5.37,2.27,10.24,4.6,14.48,6.79c-4.95-4.14-20.43-18.03-8.28-20.34
				c12.7-2.41,12.58,17.91,12.39,22.52c8.35,4.54,13.34,7.99,13.38,8.02L200.86,347.87z"/>
			<path class="st5" d="M200.86,347.87c-0.04-0.03-4.99-3.45-13.25-7.94c-1.03,0.65-3.09,1.91-5.62,3.22
				c0.51-2.2-0.11-4.48-1.27-6.61c0.19,0.03,0.38,0.06,0.57,0.1l-0.71-0.35c-0.51-0.9-1.11-1.78-1.76-2.61
				c1.91,0.92,3.72,1.82,5.43,2.7c-4.95-4.14-20.43-18.03-8.28-20.34c12.7-2.41,12.58,17.91,12.39,22.52
				c8.35,4.54,13.34,7.99,13.38,8.02L200.86,347.87L200.86,347.87z M155.09,319.98c2.88-0.71,9.49-1.77,13.59,2.05
				c-1.58-7.76-5.23-17.88-13.32-14.87C148.85,309.58,151.23,315.14,155.09,319.98z"/>
		</g>
		<path class="st3" d="M159.53,181.02c-0.04-0.04-4.3-5.06-11.77-12.16c-4.78,1.49-27.57,7.99-27.19-3.96
			c0.31-9.82,14.15-4.71,21.44-1.32c-3.46-3.07-7.36-6.36-11.66-9.69c-5.57,1.8-26.36,7.89-25.82-2.04
			c0.56-10.26,15.1-4.58,19.79-2.47c-3.77-2.72-7.78-5.41-12-7.99c-4.39,1.82-21.14,8.13-22.2-0.8c-0.94-7.95,9.83-5.17,14.77-3.5
			c-2.42-1.32-4.9-2.59-7.43-3.8c-9.59,1.22-32.54-4.21-23.75-12.4c7.65-7.13,19.85,5.84,23.85,10.54c2.86,1.35,5.66,2.79,8.39,4.28
			c-2.93-5.21-8.91-17.5,0.75-16.27c10.75,1.37,7.74,16.96,6.87,20.7c3.43,2.11,6.72,4.29,9.86,6.5
			c-4.24-6.6-11.76-20.53-0.51-21.59c13.56-1.29,9.63,23.67,8.89,27.81c5.03,3.92,9.53,7.78,13.39,11.29
			c-4.06-5.78-16.51-24.87-2.99-23.87c14.12,1.05,8.23,22.51,6.73,27.34c7.54,7.17,11.85,12.24,11.89,12.28L159.53,181.02z"/>
	</g>
	<g>
		<g>
			<path class="st3" d="M188.66,350.55l3.41-132.52c0,0-1.05-8.71,10.7-8.31c11.75,0.41,210.99,6.12,210.99,6.12
				s8.06,1.51,8.51,7.76c0.45,6.25-3.2,135.43-3.2,135.43L188.66,350.55z"/>
			<path class="st6" d="M313.2,214.88c1.1,0,1.98,0.89,1.98,1.98c0,1.1-0.89,1.98-1.98,1.98c-1.1,0-1.98-0.89-1.98-1.98
				C311.22,215.77,312.11,214.88,313.2,214.88z"/>
			<path class="st6" d="M197.25,334.09l2.8-108.76c0,0-0.91-7.58,9.31-7.23c10.23,0.35,197.13,7.03,197.13,7.03s7.02,1.32,7.41,6.75
				c0.33,4.62-1.92,86.71-2.59,111.09c-0.05,1.86-0.76,3.43-2.12,4.7c-1.36,1.27-2.98,1.87-4.84,1.79l-200.7-8.52
				C200.01,340.78,197.15,337.73,197.25,334.09z"/>
			<path class="st6" d="M317.03,314.56c0,0-29.83-12.57-72.69-20.69l-40.7,47.07c-5.55-5.21-10.61-5.38-14.64-3.78l3.06-119.12
				c0,0-1.05-8.71,10.7-8.31c4.96,0.17,43.39,1.29,86.13,2.53C294.52,246.9,300.13,283.38,317.03,314.56z"/>
			<path class="st6" d="M393.9,215.27l19.86,0.57c0,0,8.06,1.51,8.51,7.76c0.31,4.34-1.35,67.93-2.4,106.41
				c-2.86-5.11-7.58-8.68-14.55,0C396.07,341.52,394.21,261.6,393.9,215.27z"/>
			<path class="st7" d="M294.63,348.12c0,0,17.56-0.77,18.04,1.22c0.48,1.99,0.16,3.93-0.28,3.82c-0.44-0.1-17.68,0.31-18-0.66
				C294.07,351.53,294.11,348.12,294.63,348.12z"/>
		</g>
		<g>
			<path class="st3" d="M300.49,309.49l-12.08-34.22c-0.17-0.48-0.56-0.8-1.05-0.88c-5.01-0.78-10.03-1.51-15.03-2.17
				c-0.48-0.06-0.92,0.11-1.22,0.49c-0.3,0.38-0.38,0.84-0.21,1.3l12.37,33.59c0.17,0.45,0.53,0.76,1.01,0.85
				c4.9,0.92,9.8,1.85,14.71,2.8c0.48,0.09,0.94-0.07,1.27-0.44C300.57,310.44,300.66,309.96,300.49,309.49L300.49,309.49z
				 M301.22,309.69c-3.94-11.06-7.85-22.03-11.63-32.92c-0.16-0.46-0.07-0.93,0.24-1.3c0.31-0.37,0.77-0.53,1.25-0.45l15.06,2.59
				c0.5,0.09,0.88,0.42,1.04,0.9c3.76,11.45,7.76,23.01,11.88,34.69c0.16,0.47,0.07,0.95-0.25,1.32c-0.32,0.37-0.79,0.53-1.27,0.43
				l-14.81-2.97c-0.47-0.1-0.83-0.41-1-0.86L301.22,309.69L301.22,309.69z M287.19,271.75c0.16,0.46,0.07,0.92-0.24,1.29
				c-0.31,0.37-0.75,0.54-1.23,0.46c-5.02-0.77-10.04-1.48-15.04-2.14c-0.51-0.07-0.9-0.38-1.08-0.86
				c-4.08-11.06-8.11-22.07-12.01-33.03c-0.16-0.44-0.08-0.9,0.2-1.27c0.29-0.37,0.71-0.55,1.18-0.51c5.35,0.49,10.72,1.09,16.1,1.8
				c0.53,0.07,0.94,0.42,1.1,0.93C279.63,249.46,283.34,260.56,287.19,271.75L287.19,271.75z M275.09,234.95
				c-3.38-10.94-6.51-21.82-9.29-32.66c-0.14-0.55-0.58-0.93-1.15-1c-5.98-0.66-11.96-1.18-17.93-1.53
				c-0.45-0.03-0.86,0.16-1.13,0.51c-0.28,0.36-0.36,0.79-0.22,1.23c3.47,10.81,7.16,21.65,11,32.54c0.18,0.51,0.61,0.84,1.14,0.89
				c5.37,0.47,10.74,1.05,16.12,1.74c0.46,0.06,0.89-0.11,1.19-0.47C275.14,235.85,275.23,235.4,275.09,234.95L275.09,234.95z
				 M264.94,198.88c0.11,0.44,0.01,0.86-0.29,1.2c-0.3,0.34-0.7,0.5-1.15,0.45c-6.01-0.64-12.01-1.14-18-1.47
				c-0.57-0.03-1.03-0.39-1.2-0.93c-3.41-10.76-6.62-21.46-9.27-32.39c-0.1-0.42-0.01-0.82,0.26-1.16c0.27-0.33,0.65-0.51,1.08-0.49
				c6.84,0.21,13.71,0.65,20.57,1.28c0.62,0.06,1.1,0.51,1.2,1.12C259.87,177.43,262.24,188.12,264.94,198.88L264.94,198.88z
				 M261.79,182.6c-1.1-5.09-2.06-10.19-2.88-15.3c-0.07-0.43,0.06-0.83,0.36-1.14c0.3-0.31,0.7-0.45,1.13-0.4l20.43,2.6
				c0.63,0.08,1.11,0.58,1.16,1.22c0.89,10.9,2.49,21.57,4.55,32.34c0.08,0.44-0.04,0.85-0.34,1.17c-0.31,0.32-0.71,0.46-1.15,0.4
				l-18.07-2.55c-0.55-0.08-0.97-0.46-1.11-1C264.39,194.15,263.03,188.37,261.79,182.6L261.79,182.6z M266.74,203.41
				c2.82,10.89,5.99,21.82,9.41,32.82c0.15,0.5,0.55,0.84,1.07,0.92l16.23,2.53c0.46,0.07,0.89-0.08,1.2-0.43
				c0.31-0.35,0.42-0.79,0.29-1.24c-2.97-10.97-5.58-21.85-7.74-32.67c-0.11-0.57-0.55-0.98-1.12-1.06l-17.86-2.53
				c-0.46-0.06-0.88,0.09-1.18,0.43C266.73,202.53,266.63,202.97,266.74,203.41L266.74,203.41z M277.25,239.75
				c-0.14-0.45-0.05-0.91,0.26-1.27c0.31-0.36,0.75-0.52,1.22-0.45l16.09,2.52c0.53,0.08,0.94,0.45,1.08,0.96
				c3.11,11.23,6.49,22.24,10.13,33.45c0.15,0.46,0.05,0.92-0.26,1.29c-0.31,0.36-0.76,0.52-1.24,0.44l-15.13-2.6
				c-0.49-0.08-0.87-0.41-1.04-0.88C284.48,261.98,280.74,250.83,277.25,239.75L277.25,239.75z M257.65,163.21
				c-1.57-10.76-2.53-21.57-2.88-32.44c-0.02-0.68-0.55-1.24-1.23-1.29c-7.89-0.6-15.78-0.96-23.64-1.03
				c-0.41,0-0.77,0.16-1.03,0.47c-0.27,0.31-0.37,0.69-0.3,1.1l5.74,32.36c0.11,0.62,0.61,1.06,1.23,1.1l20.71,1.26
				c0.42,0.02,0.78-0.12,1.06-0.43C257.59,164,257.71,163.62,257.65,163.21L257.65,163.21z M254.68,127.47
				c0.01,0.39-0.13,0.73-0.42,1c-0.28,0.27-0.63,0.39-1.02,0.36c-7.96-0.6-15.92-0.95-23.86-1.01c-0.68-0.01-1.24-0.51-1.32-1.18
				c-1.27-10.96-1.96-21.94-2.09-33c-0.01-0.74,0.58-1.34,1.32-1.35c9.08-0.1,18.19,0.14,27.31,0.7c0.37,0.02,0.69,0.18,0.93,0.46
				c0.24,0.28,0.35,0.62,0.32,0.99C254.85,105.48,254.45,116.46,254.68,127.47L254.68,127.47z M255.26,119.06
				c0.07-8.18,0.48-16.39,1.23-24.65c0.07-0.72,0.7-1.26,1.42-1.21c9.04,0.62,18.05,1.53,27.05,2.7c0.38,0.05,0.69,0.23,0.91,0.54
				c0.22,0.31,0.3,0.66,0.23,1.03c-2.11,11.03-3.56,22.04-4.33,33.13c-0.03,0.38-0.19,0.69-0.48,0.93c-0.29,0.24-0.63,0.34-1.01,0.3
				l-23.79-2.71c-0.67-0.08-1.17-0.63-1.18-1.3C255.25,124.91,255.23,121.98,255.26,119.06L255.26,119.06z M255.41,131.17
				c0.37,10.96,1.36,21.87,2.97,32.72c0.09,0.6,0.55,1.05,1.15,1.13l20.7,2.63c0.41,0.05,0.78-0.07,1.09-0.35
				c0.3-0.28,0.44-0.65,0.42-1.06c-0.73-10.74-0.79-21.52-0.17-32.36c0.04-0.71-0.48-1.32-1.18-1.4l-23.49-2.67
				c-0.4-0.05-0.76,0.07-1.06,0.35C255.54,130.42,255.4,130.77,255.41,131.17L255.41,131.17z M256.17,91.16
				c1.17-11.43,2.99-22.96,5.47-34.58c0.09-0.4,0-0.78-0.26-1.1c-0.25-0.32-0.6-0.5-1.01-0.51c-10.48-0.32-20.96-0.28-31.4,0.17
				c-0.67,0.03-1.2,0.53-1.27,1.2c-1.18,11.41-1.76,22.73-1.75,33.99c0,0.37,0.13,0.69,0.4,0.95c0.26,0.26,0.58,0.39,0.95,0.39
				c9.13-0.1,18.29,0.15,27.45,0.71C255.48,92.4,256.1,91.87,256.17,91.16L256.17,91.16z M262.12,54.38l0.12-0.56l0.61,0.13
				l-0.1,0.45c11,0.39,21.98,1.17,32.93,2.28c0.63,0.06,1.2-0.31,1.4-0.91l0.03-0.09l0.6,0.2l-0.32,0.97
				c11.52,1.2,23,2.77,34.39,4.63l-0.05,0.31l0.29,0.13c-18.61,41.67-28.63,84.06-25.28,128.38c3.25,43.03,17.56,87.58,32.46,129.35
				l-0.3,0.11l-0.07,0.31c-21.5-4.68-43.24-8.93-64.79-12.88c-8.81-1.62-17.65-3.39-26.61-5.47c-0.27-0.06-0.52-0.05-0.78,0.06
				l-0.19,0.07l-0.15-0.39l-17.9-4.6l0.11,0.28l-0.59,0.23l-0.05-0.13c-0.16-0.4-0.46-0.67-0.87-0.79
				c-6.15-1.75-12.39-3.69-18.75-5.85l0.1-0.3l-0.29,0.12c-14.22-35.04-34.04-69.96-55.42-102.41c-3.2-4.85-6.32-9.7-9.38-14.56
				l-0.14,0.03l-0.04-0.17c-0.03-0.16-0.09-0.29-0.17-0.43c-6.03-9.59-11.77-19.2-17.18-28.82l-1.02,0.32l-0.19-0.6l0.9-0.28
				c-5.31-9.45-10.41-19.12-15.11-28.75l-1.12,0.44l-0.23-0.59l1.08-0.42c-4.66-9.56-8.96-19.16-12.88-28.79l0.29-0.12l-0.13-0.29
				c9.03-4.08,18.34-7.78,27.92-11.1c0.66-0.23,1.04-0.93,0.85-1.61l-0.18-0.67l0.61-0.16l0.12,0.46c0.1,0.37,0.32,0.65,0.66,0.83
				c0.34,0.18,0.69,0.21,1.06,0.09c9.86-3.31,20-6.2,30.23-8.64l-0.11-0.79l0.62-0.08l0.1,0.72
				C193.16,56.04,226.97,53.19,262.12,54.38L262.12,54.38z M262.39,56.13c-2.53,11.76-4.39,23.41-5.57,34.97
				c-0.04,0.37,0.07,0.71,0.31,1c0.24,0.29,0.56,0.45,0.93,0.47c9.09,0.63,18.16,1.55,27.21,2.73c0.7,0.09,1.34-0.37,1.48-1.06
				c2.36-11.64,5.46-23.38,9.3-35.26c0.13-0.4,0.08-0.79-0.15-1.14c-0.23-0.35-0.57-0.56-0.98-0.6
				c-10.36-1.04-20.76-1.77-31.16-2.16C263.09,55.05,262.52,55.49,262.39,56.13L262.39,56.13z M181.56,231.85
				c4.78,0.18,9.61,0.33,14.45,0.48c0.48,0.01,0.91-0.21,1.17-0.62c0.26-0.41,0.28-0.89,0.06-1.32c-4.81-9.48-9.8-18.98-14.92-28.48
				c-0.26-0.48-0.74-0.74-1.28-0.7c-5.36,0.44-10.67,0.92-15.94,1.44c-0.47,0.05-0.86,0.31-1.07,0.74c-0.21,0.43-0.19,0.89,0.07,1.3
				c16.96,27.19,32.5,55.93,44.28,84.81c0.15,0.37,0.43,0.63,0.81,0.76c5.25,1.77,10.41,3.39,15.52,4.88c0.5,0.15,1.02,0,1.37-0.39
				c0.35-0.39,0.44-0.91,0.24-1.4c-3.77-9.23-7.8-18.5-12.05-27.78c-0.19-0.42-0.55-0.69-1.01-0.76
				c-5.34-0.82-10.71-1.73-16.13-2.74l0.11-0.62c4.66,0.87,9.29,1.66,13.89,2.39c0.5,0.08,0.98-0.11,1.28-0.52
				c0.3-0.41,0.35-0.92,0.13-1.38l-13.61-28.17c-0.22-0.46-0.65-0.74-1.16-0.75c-5.39-0.15-10.79-0.32-16.23-0.53L181.56,231.85
				L181.56,231.85z M199.77,232.43l15.38,0.43c0.47,0.01,0.89-0.2,1.15-0.59c0.26-0.39,0.3-0.86,0.11-1.29
				c-4.56-10.11-9.2-20.22-13.85-30.33c-0.24-0.51-0.74-0.81-1.3-0.77l-16.59,1.08c-0.47,0.03-0.85,0.28-1.08,0.69
				c-0.23,0.41-0.23,0.87-0.01,1.28c5.16,9.6,10.19,19.2,15.04,28.78C198.85,232.15,199.27,232.42,199.77,232.43L199.77,232.43z
				 M205.44,233.22l-3.95-0.11c-0.48-0.01-0.9,0.21-1.16,0.61c-0.26,0.4-0.29,0.87-0.08,1.31l13.84,28.68c0.2,0.41,0.55,0.67,1,0.74
				c4.94,0.74,9.86,1.42,14.76,2.06c0.49,0.06,0.94-0.13,1.24-0.52c0.3-0.39,0.36-0.88,0.16-1.33c-4.33-10.11-8.8-20.22-13.34-30.33
				c-0.21-0.48-0.65-0.77-1.18-0.79C212.96,233.43,209.2,233.32,205.44,233.22L205.44,233.22z M218.82,232.97
				c5.19,0.16,10.39,0.34,15.62,0.56c0.47,0.02,0.88-0.18,1.15-0.56c0.27-0.38,0.32-0.83,0.15-1.27
				c-4.22-10.55-8.4-21.09-12.48-31.63c-0.2-0.53-0.69-0.86-1.26-0.85c-5.77,0.06-11.49,0.22-17.16,0.47
				c-0.46,0.02-0.84,0.25-1.08,0.64c-0.24,0.39-0.26,0.84-0.07,1.25c4.69,10.2,9.36,20.4,13.96,30.6
				C217.85,232.66,218.29,232.95,218.82,232.97L218.82,232.97z M238.04,233.71c-0.53-0.03-0.96-0.35-1.16-0.84
				c-4.24-10.62-8.46-21.22-12.56-31.8c-0.17-0.43-0.11-0.87,0.15-1.25c0.26-0.38,0.66-0.58,1.12-0.57l17.57,0.36
				c0.58,0.01,1.07,0.38,1.25,0.93c3.43,10.76,7.1,21.55,10.9,32.37c0.15,0.44,0.08,0.88-0.19,1.25c-0.28,0.37-0.69,0.56-1.15,0.53
				L238.04,233.71L238.04,233.71z M247.2,234.8c-2.56-0.15-5.12-0.29-7.67-0.41c-0.47-0.02-0.88,0.18-1.15,0.56
				c-0.27,0.38-0.33,0.84-0.15,1.27l12.83,32.12c0.19,0.47,0.59,0.77,1.09,0.83l14.88,1.74c0.47,0.06,0.91-0.12,1.2-0.5
				c0.3-0.38,0.37-0.84,0.2-1.29c-4.06-11-8.06-21.95-11.93-32.87c-0.18-0.51-0.61-0.84-1.15-0.89
				C252.63,235.16,249.91,234.96,247.2,234.8L247.2,234.8z M235.9,234.23c0.54,0.02,0.98,0.34,1.18,0.84l12.73,31.86
				c0.18,0.45,0.11,0.92-0.18,1.31c-0.29,0.38-0.73,0.57-1.21,0.52c-4.91-0.57-9.83-1.15-14.75-1.76c-0.48-0.06-0.87-0.35-1.06-0.8
				c-4.36-10.22-8.86-20.44-13.45-30.65c-0.19-0.43-0.15-0.9,0.11-1.29c0.26-0.39,0.68-0.61,1.15-0.59
				C225.56,233.81,230.72,234,235.9,234.23L235.9,234.23z M297,240.27c-0.52-0.09-0.91-0.45-1.05-0.96
				c-3.02-11.04-5.68-21.99-7.88-32.87c-0.09-0.45,0.03-0.87,0.35-1.2c0.32-0.33,0.74-0.46,1.19-0.38
				c5.87,1.02,11.73,2.15,17.58,3.38c0.56,0.12,0.96,0.55,1.05,1.12c5.16,35.85,16.94,72.62,29.4,107.72
				c0.17,0.47,0.07,0.95-0.26,1.33c-0.33,0.37-0.8,0.53-1.29,0.42c-4.94-1.07-9.87-2.1-14.78-3.12c-0.47-0.1-0.83-0.41-0.99-0.86
				c-4.14-11.73-8.17-23.33-11.97-34.83c-0.15-0.46-0.06-0.93,0.26-1.3c0.32-0.37,0.78-0.52,1.25-0.43c4.98,0.95,9.97,1.95,14.96,3
				l0.13-0.62c-5.59-1.18-11.18-2.29-16.76-3.34c-0.49-0.09-0.87-0.42-1.02-0.9c-3.68-11.28-7.1-22.33-10.25-33.59
				c-0.13-0.46-0.02-0.91,0.3-1.26c0.32-0.35,0.76-0.5,1.23-0.41c5.44,0.99,10.88,2.08,16.3,3.24l0.13-0.62
				C308.93,242.52,302.97,241.34,297,240.27L297,240.27z M111.77,113.54c7.57-2.91,15.34-5.57,23.29-7.94
				c0.36-0.11,0.64-0.34,0.81-0.68c0.17-0.34,0.19-0.69,0.07-1.05c-3.34-9.42-6.35-18.88-8.98-28.38c-0.1-0.37-0.33-0.65-0.67-0.83
				c-0.34-0.18-0.7-0.2-1.06-0.08c-8.96,3.11-17.7,6.57-26.19,10.35c-0.66,0.29-0.97,1.06-0.69,1.73c3.6,8.76,7.53,17.5,11.74,26.21
				C110.39,113.5,111.12,113.79,111.77,113.54L111.77,113.54z M138.23,104.67c8.3-2.39,16.78-4.47,25.31-6.21
				c0.37-0.07,0.65-0.27,0.86-0.59c0.2-0.31,0.26-0.66,0.18-1.02c-2.32-10.14-4.23-20.32-5.7-30.55c-0.06-0.39-0.25-0.7-0.57-0.92
				c-0.32-0.22-0.68-0.28-1.06-0.19c-9.76,2.37-19.44,5.16-28.86,8.33c-0.67,0.23-1.05,0.94-0.86,1.62
				c2.66,9.6,5.7,19.16,9.08,28.69C136.83,104.5,137.55,104.86,138.23,104.67L138.23,104.67z M157.16,100.46
				c-6.28,1.41-12.47,3-18.55,4.75c-0.37,0.11-0.65,0.34-0.82,0.68c-0.17,0.34-0.2,0.7-0.07,1.06c3.53,9.71,7.43,19.4,11.61,28.93
				c0.25,0.58,0.86,0.9,1.48,0.77l22.06-4.35c0.39-0.08,0.69-0.29,0.89-0.63c0.2-0.34,0.24-0.71,0.12-1.09
				c-3.25-10.08-6.12-20.29-8.56-30.54c-0.17-0.7-0.86-1.14-1.57-1C161.54,99.5,159.35,99.97,157.16,100.46L157.16,100.46z
				 M135.42,106.14c-7.9,2.36-15.63,4.99-23.15,7.88c-0.36,0.14-0.62,0.4-0.77,0.76c-0.14,0.36-0.13,0.73,0.05,1.08
				c4.37,8.88,9.08,17.8,13.97,26.53c0.31,0.56,0.95,0.81,1.56,0.62c6.69-2.06,13.53-3.94,20.51-5.63c0.4-0.1,0.7-0.34,0.88-0.7
				c0.18-0.37,0.19-0.75,0.03-1.13c-4.11-9.42-7.96-18.98-11.44-28.58C136.81,106.3,136.1,105.94,135.42,106.14L135.42,106.14z
				 M166.76,97.81c8.71-1.69,17.59-3.05,26.62-4.07c0.73-0.08,1.26-0.74,1.18-1.48c-1.19-10.7-1.89-21.46-2.07-32.29
				c-0.01-0.4-0.17-0.74-0.47-1c-0.3-0.26-0.66-0.36-1.06-0.3c-10.36,1.5-20.53,3.42-30.49,5.74c-0.68,0.16-1.12,0.8-1.02,1.49
				c1.47,10.34,3.4,20.64,5.75,30.89C165.37,97.5,166.06,97.95,166.76,97.81L166.76,97.81z M196.65,93.39
				c9.12-0.94,18.17-1.5,27.37-1.69c0.73-0.02,1.31-0.61,1.31-1.34c-0.01-11.13,0.55-22.33,1.7-33.61c0.04-0.4-0.08-0.76-0.36-1.06
				c-0.28-0.29-0.63-0.43-1.04-0.41c-10.52,0.54-20.96,1.51-31.36,2.92c-0.67,0.09-1.17,0.66-1.16,1.34
				c0.17,10.95,0.87,21.83,2.07,32.65C195.27,92.94,195.93,93.46,196.65,93.39L196.65,93.39z M207.52,93.08
				c-3.61,0.26-7.2,0.57-10.76,0.93c-0.37,0.04-0.67,0.2-0.91,0.5c-0.23,0.29-0.33,0.63-0.28,0.99c1.31,10.78,3.12,21.54,5.42,32.17
				c0.14,0.66,0.74,1.1,1.41,1.05c7.91-0.59,15.73-0.91,23.68-0.92c0.39,0,0.73-0.15,0.99-0.45c0.26-0.29,0.37-0.65,0.33-1.04
				c-1.24-10.85-1.92-21.72-2.05-32.66c0-0.37-0.14-0.69-0.41-0.94c-0.27-0.26-0.59-0.38-0.96-0.38
				C218.49,92.45,213,92.69,207.52,93.08L207.52,93.08z M193.47,94.37c-8.97,1.01-17.8,2.36-26.46,4.04
				c-0.37,0.07-0.66,0.27-0.87,0.59c-0.2,0.32-0.26,0.67-0.18,1.03c2.47,10.34,5.37,20.64,8.66,30.81c0.2,0.63,0.82,1.01,1.47,0.91
				c7.54-1.16,15.21-2.09,22.99-2.75c0.4-0.03,0.72-0.22,0.96-0.54c0.24-0.32,0.32-0.69,0.23-1.08
				c-2.26-10.53-4.05-21.17-5.34-31.85C194.85,94.81,194.19,94.28,193.47,94.37L193.47,94.37z M288.53,95.73
				c8.37,1.15,16.72,2.5,25.01,4.04l-0.11,0.62c-8.35-1.54-16.75-2.91-25.18-4.06c-0.7-0.1-1.36,0.37-1.49,1.07
				c-2.14,11.14-3.6,22.25-4.37,33.45c-0.05,0.7,0.44,1.31,1.14,1.41c7.8,1.16,15.58,2.53,23.31,4.06l-0.12,0.62
				c-7.63-1.51-15.31-2.86-23-4.02c-0.39-0.06-0.74,0.04-1.04,0.28c-0.3,0.25-0.47,0.57-0.49,0.96
				c-0.61,10.97-0.54,21.87,0.23,32.73c0.04,0.63,0.5,1.13,1.12,1.22c6.8,1.09,13.59,2.34,20.36,3.73c0.4,0.08,0.79-0.01,1.11-0.27
				c0.32-0.26,0.49-0.61,0.5-1.02c0.45-36.7,9.78-72.14,25.09-106.94c0.17-0.39,0.15-0.8-0.05-1.18c-0.2-0.38-0.54-0.61-0.96-0.68
				c-10.38-1.66-20.82-3.07-31.31-4.18c-0.63-0.07-1.21,0.31-1.41,0.91c-3.91,12.01-7.06,23.88-9.45,35.64
				c-0.08,0.38,0,0.73,0.22,1.04C287.85,95.49,288.15,95.68,288.53,95.73L288.53,95.73z M168.32,133.67
				c-5.65,1.01-11.23,2.15-16.73,3.41c-0.4,0.09-0.71,0.34-0.9,0.71c-0.18,0.37-0.19,0.76-0.02,1.14c4.3,9.65,8.95,19.27,13.9,28.87
				c0.26,0.51,0.8,0.79,1.37,0.71l19.15-2.66c0.42-0.06,0.76-0.29,0.97-0.66c0.21-0.37,0.24-0.78,0.08-1.17
				c-4.14-10.07-7.9-20.17-11.26-30.32c-0.21-0.63-0.83-1.01-1.48-0.9C171.71,133.08,170.01,133.37,168.32,133.67L168.32,133.67z
				 M148.31,137.85c-6.92,1.66-13.72,3.52-20.36,5.55c-0.4,0.12-0.7,0.39-0.85,0.78c-0.16,0.39-0.13,0.79,0.08,1.15
				c5.03,8.88,10.34,17.75,15.91,26.62c0.3,0.49,0.85,0.72,1.41,0.6c5.92-1.27,11.95-2.45,18.06-3.5c0.43-0.07,0.77-0.33,0.97-0.72
				c0.2-0.39,0.19-0.82-0.01-1.21c-4.87-9.48-9.44-18.99-13.68-28.52C149.58,138.01,148.94,137.7,148.31,137.85L148.31,137.85z
				 M212.63,128.74c4.6-0.21,9.21-0.31,13.83-0.31c0.68,0,1.24,0.5,1.33,1.17c1.34,10.78,3.24,21.51,5.67,32.19
				c0.09,0.41,0.01,0.8-0.25,1.12c-0.26,0.33-0.61,0.5-1.03,0.51l-20.51,0.28c-0.6,0.01-1.11-0.36-1.29-0.93
				c-3.37-10.56-6.26-21.17-8.66-31.83c-0.09-0.39-0.01-0.77,0.23-1.09c0.24-0.32,0.57-0.51,0.98-0.54
				C206.14,129.08,209.38,128.89,212.63,128.74L212.63,128.74z M199.58,129.58c-7.73,0.65-15.35,1.55-22.84,2.7
				c-0.4,0.06-0.72,0.28-0.94,0.62c-0.21,0.35-0.26,0.73-0.13,1.12c3.4,10.24,7.21,20.44,11.41,30.6c0.23,0.56,0.78,0.88,1.38,0.82
				c6.53-0.7,13.15-1.24,19.84-1.6c0.43-0.02,0.78-0.22,1.03-0.57c0.24-0.35,0.3-0.76,0.17-1.16c-3.3-10.44-6.15-20.94-8.51-31.48
				C200.85,129.96,200.25,129.52,199.58,129.58L199.58,129.58z M181.44,166.88c-4.8,0.6-9.56,1.29-14.27,2.04
				c-0.44,0.07-0.79,0.33-0.99,0.73c-0.2,0.4-0.19,0.83,0.02,1.23l15.65,28.85c0.25,0.47,0.73,0.73,1.26,0.7l16.83-1.1
				c0.45-0.03,0.83-0.26,1.06-0.65c0.23-0.39,0.25-0.83,0.06-1.24c-4.63-10.04-9.36-20.13-13.63-30.29
				c-0.23-0.56-0.78-0.88-1.38-0.81C184.52,166.5,182.98,166.69,181.44,166.88L181.44,166.88z M163.72,169.49
				c-6.05,1.03-12.02,2.17-17.89,3.42c-0.44,0.09-0.78,0.38-0.96,0.79c-0.17,0.42-0.14,0.86,0.11,1.24l17.82,27.67l-0.04-0.36
				c5.54-0.55,11.14-1.07,16.78-1.54c0.46-0.04,0.84-0.29,1.06-0.7c0.22-0.41,0.22-0.86,0-1.27l-15.49-28.56
				C164.84,169.66,164.29,169.4,163.72,169.49L163.72,169.49z M221.91,163.98c-3.11,0.05-6.2,0.14-9.28,0.27
				c-0.43,0.02-0.8,0.22-1.04,0.57c-0.25,0.36-0.31,0.77-0.17,1.18c3.52,10.69,7.54,21.2,11.61,31.73c0.2,0.52,0.67,0.84,1.22,0.85
				l17.8,0.35c0.44,0.01,0.83-0.18,1.1-0.53c0.27-0.36,0.34-0.78,0.2-1.2c-3.37-10.69-6.54-21.3-9.13-32.17
				c-0.14-0.6-0.66-1.01-1.27-1.03C229.26,163.93,225.58,163.92,221.91,163.98L221.91,163.98z M209.2,164.42
				c-6.64,0.34-13.21,0.86-19.7,1.54c-0.43,0.05-0.79,0.27-1.01,0.65c-0.22,0.38-0.25,0.8-0.08,1.2
				c4.33,10.25,9.11,20.42,13.78,30.54c0.23,0.5,0.72,0.8,1.28,0.78c5.71-0.27,11.48-0.45,17.29-0.52c0.45-0.01,0.84-0.21,1.09-0.59
				c0.25-0.37,0.3-0.81,0.14-1.23c-4.03-10.44-7.98-20.83-11.45-31.45C210.35,164.75,209.81,164.39,209.2,164.42L209.2,164.42z
				 M234.48,163.41l23.41,1.42C250.08,164.1,242.27,163.61,234.48,163.41L234.48,163.41z M305.48,172.52l-0.06,0.29
				c-7.04-1.47-14.11-2.79-21.2-3.94c-0.42-0.07-0.81,0.05-1.12,0.34c-0.31,0.29-0.46,0.67-0.42,1.09
				c0.93,10.99,2.59,21.78,4.7,32.65c0.11,0.56,0.53,0.97,1.09,1.06c5.91,1,11.81,2.13,17.69,3.36c0.44,0.09,0.85-0.02,1.18-0.33
				c0.33-0.3,0.47-0.71,0.42-1.15C306.26,194.71,305.44,183.81,305.48,172.52L305.48,172.52z M228.78,296.28l14.74,3.81
				c0.5,0.13,0.99-0.02,1.33-0.41c0.34-0.38,0.43-0.89,0.24-1.37c-3.94-10.05-8.07-20.09-12.34-30.13c-0.19-0.45-0.58-0.74-1.06-0.8
				c-4.83-0.62-9.68-1.27-14.55-1.99c-0.5-0.07-0.96,0.12-1.26,0.52c-0.3,0.4-0.36,0.9-0.15,1.36c4.29,9.44,8.35,18.85,12.14,28.23
				C228.04,295.9,228.35,296.17,228.78,296.28L228.78,296.28z M247.48,301.08c4.9,1.14,9.77,2.19,14.61,3.17
				c0.49,0.1,0.96-0.06,1.28-0.44c0.32-0.38,0.41-0.87,0.23-1.34c-4.03-10.71-8.2-21.39-12.41-32.05c-0.19-0.47-0.59-0.78-1.09-0.84
				c-4.87-0.56-9.74-1.13-14.62-1.73c-0.49-0.06-0.93,0.13-1.23,0.52c-0.3,0.39-0.35,0.87-0.16,1.33
				c4.32,10.19,8.48,20.38,12.45,30.57C246.7,300.69,247.03,300.98,247.48,301.08L247.48,301.08z M265.92,305
				c-0.47-0.09-0.84-0.39-1-0.84c-4.06-10.82-8.24-21.59-12.48-32.33c-0.18-0.45-0.11-0.92,0.18-1.31c0.29-0.38,0.73-0.57,1.21-0.51
				l14.78,1.73c0.51,0.06,0.92,0.38,1.1,0.87l12.28,33.35c0.17,0.46,0.09,0.95-0.23,1.32c-0.32,0.38-0.78,0.54-1.27,0.45L265.92,305
				z"/>
			<g>
				<g>
					<path class="st3" d="M215.62,316.81c12.72,25.17,99.88,40.06,98.89,24.18c-46.22-45.09-49.57-142.11-46.38-179.1
						c17-4.63,33.17-15.45,28.68-35.82c-5.27-23.93-101.3-12.44-148.26-4.6C85.4,132.02,152.69,296.55,215.62,316.81z"/>
					<path class="st7" d="M215.62,316.81c6.09,12.04,29.22,21.73,51.58,26.82l43.96,1.87c2.25-1.06,3.48-2.55,3.35-4.51
						c-20.6-20.1-32.69-50.52-39.47-81.34c-9.91,10.51-31.76,26.63-57.68,1.8c0,0-7.35,4.55-18.46,8.15l-0.98,37.95
						C203.79,311.74,209.73,314.91,215.62,316.81z"/>
					<path class="st6" d="M268.13,161.89c39.94,5.52,34.85-38.9,20.54-42.44C278.6,116.96,264.28,130.09,268.13,161.89z"/>
					<path class="st3" d="M288.67,119.45c0,0,10.44,4.74,9.34,18.01c-1.1,13.27-18.28,23.12-20.74,15.11s7.82-12.82,9.56-8.19
						c0,0-1.31-7.89-6.73-6.71v0c-19,4.17-12.13,27.16,1.61,24.11c7.55-1.67,15.65-6.46,19.04-16.23
						C304.97,133.38,298.36,119.68,288.67,119.45z"/>
				</g>
				<g>
					<g>
						<path class="st8" d="M133.15,173.23c0,0,122.19-4.95,122.8-2.67c0.61,2.28,1.66,71.55,16.77,108.42c0,0,5.14,5.72-5.2,5.11
							c-10.33-0.61-88.94-0.27-88.94-0.27S135.28,223.1,133.15,173.23z"/>
						<path class="st9" d="M268.25,265.85c1.33,4.68,2.82,9.09,4.47,13.12c0,0,5.14,5.72-5.2,5.11
							c-10.33-0.61-88.94-0.27-88.94-0.27s-2.61-3.66-6.57-9.91c24.54,0.41,45.35-12.47,45.35-12.47
							C238.42,281.62,256.79,274.77,268.25,265.85z"/>
					</g>
					<path class="st3" d="M247.14,173.99l4.86-0.19c0.26-0.01,0.48,0.16,0.54,0.41l0.99,4.31c0.07,0.29-0.11,0.57-0.4,0.64
						l-0.49,0.11c-0.29,0.07-0.57-0.11-0.64-0.4l-0.36-1.55c-0.05-0.2-0.19-0.35-0.39-0.4c-0.2-0.05-0.4,0.01-0.53,0.17l-2.59,3.03
						c-0.19,0.22-0.53,0.25-0.75,0.06l-0.38-0.33c-0.22-0.19-0.25-0.53-0.06-0.75l2.33-2.73c0.14-0.17,0.17-0.38,0.07-0.58
						c-0.09-0.19-0.29-0.31-0.5-0.3l-1.63,0.06c-0.29,0.01-0.54-0.22-0.56-0.51l-0.02-0.51c-0.01-0.15,0.04-0.28,0.14-0.38
						C246.86,174.05,246.99,174,247.14,173.99z"/>
					<g>
						<path class="st10" d="M234.88,182.28c0.02,0.62,0.04,1.24,0.06,1.86l0,0.11c0.01,0.44-0.33,0.81-0.77,0.83l-0.11,0
							c-6.11,0.21-12.22,0.44-18.33,0.67l-0.11,0c-0.22,0.01-0.42-0.07-0.58-0.22c-0.16-0.15-0.25-0.34-0.25-0.57l0-0.11
							c-0.02-0.87-0.12-2.24,0.4-2.97c0.32-0.46,1-0.47,1.5-0.52c0.69-0.06,1.4-0.1,2.09-0.13c2.05-0.09,4.11-0.14,6.17-0.17
							c2-0.03,4.01-0.03,6.01,0.03c0.76,0.02,2.99,0.03,3.59,0.51l0.04,0.03c0.19,0.15,0.29,0.36,0.3,0.6L234.88,182.28z"/>
						<path class="st10" d="M211.24,182.8c0.01,0.73,0,1.47,0.01,2.2l0,0.11c0.01,0.44-0.34,0.8-0.77,0.82l-0.11,0
							c-6.99,0.24-13.98,0.44-20.97,0.56l-0.11,0c-0.22,0-0.41-0.07-0.57-0.23c-0.16-0.15-0.24-0.34-0.24-0.56l0-0.11
							c-0.02-1.05-0.19-2.71,0.81-3.37c0.48-0.31,3.16-0.3,3.77-0.31c2.33-0.07,4.66-0.11,6.99-0.14c2.31-0.03,4.63-0.05,6.95-0.03
							c0.71,0.01,3.36-0.08,3.91,0.37l0.04,0.03c0.19,0.15,0.29,0.36,0.3,0.61L211.24,182.8z"/>
						<path class="st10" d="M245.17,191.08c0.03,0.62,0.06,1.24,0.09,1.86l0.01,0.11c0.01,0.22-0.06,0.42-0.21,0.58
							c-0.15,0.16-0.34,0.25-0.56,0.26l-0.11,0c-5.39,0.21-10.78,0.46-16.17,0.71l-0.11,0.01c-0.22,0.01-0.41-0.06-0.58-0.21
							c-0.16-0.15-0.25-0.34-0.26-0.56l-0.01-0.11c-0.04-0.77-0.07-1.55-0.1-2.32l0-0.11c-0.02-0.44,0.32-0.81,0.76-0.83l0.11-0.01
							c2.7-0.13,5.4-0.25,8.1-0.33c1.63-0.05,3.26-0.08,4.89-0.08c1.06,0,2.35-0.01,3.39,0.17l0.09,0.01
							c0.38,0.06,0.65,0.37,0.67,0.75L245.17,191.08z"/>
						<path class="st10" d="M225.51,191.97c0.03,0.62,0.05,1.24,0.08,1.85l0.01,0.11c0.02,0.44-0.32,0.81-0.76,0.84l-0.11,0.01
							c-16.95,0.83-33.9,1.56-50.86,1.78l-0.11,0c-0.43,0.01-0.78-0.33-0.81-0.75l-0.01-0.11c-0.06-1.04-0.33-2.69,0.67-3.37
							c0.4-0.27,2.21-0.24,2.69-0.26c1.91-0.07,3.82-0.13,5.73-0.18c5.77-0.17,11.54-0.33,17.31-0.47
							c5.73-0.14,11.46-0.28,17.19-0.36c1.92-0.03,3.84-0.05,5.76-0.05c0.58,0,2.39-0.08,2.86,0.27l0.04,0.03
							c0.2,0.15,0.31,0.36,0.32,0.61L225.51,191.97z"/>
						<path class="st10" d="M170.43,196.59c-7.61,0.08-15.21,0.17-22.82,0.35l-0.11,0c-0.43,0.01-0.8-0.33-0.82-0.76l0-0.11
							c-0.06-1.18-0.34-3.03,1.05-3.55c0.68-0.26,3.28-0.29,4.06-0.32c2.47-0.09,4.95-0.14,7.42-0.18c2.55-0.04,5.09-0.07,7.64-0.06
							c0.64,0,3.15-0.11,3.99,0.21c0.3,0.12,0.5,0.39,0.51,0.71l0,0.05c0.04,0.9-0.07,1.82-0.03,2.71l0.01,0.11
							c0.01,0.23-0.06,0.42-0.22,0.59c-0.15,0.16-0.35,0.25-0.57,0.25L170.43,196.59z"/>
						<path class="st10" d="M228.63,203.42c0.03,0.61,0.07,1.23,0.1,1.84l0.01,0.11c0.01,0.22-0.06,0.42-0.21,0.58
							c-0.15,0.16-0.33,0.25-0.56,0.26l-0.11,0.01c-7.17,0.35-14.33,0.71-21.5,1.04l-0.11,0.01c-0.44,0.02-0.81-0.31-0.84-0.75
							l-0.01-0.11c-0.05-0.77-0.1-1.53-0.14-2.3l-0.01-0.11c-0.01-0.22,0.06-0.42,0.2-0.58c0.15-0.17,0.34-0.25,0.56-0.26l0.11-0.01
							c3.52-0.16,7.05-0.45,10.58-0.64c1.73-0.09,10.32-0.69,11.55,0.23l0.04,0.03c0.2,0.15,0.31,0.35,0.32,0.6L228.63,203.42z"/>
						<path class="st9" d="M201.33,204.71c0.04,0.61,0.08,1.22,0.12,1.83l0.01,0.11c0.01,0.22-0.05,0.42-0.2,0.59
							c-0.15,0.17-0.34,0.26-0.56,0.26l-0.11,0c-11.53,0.45-23.08,0.65-34.62,0.81l-0.11,0c-0.43,0.01-0.79-0.33-0.81-0.76
							l-0.01-0.11c-0.07-1.27-0.36-3.23,1.27-3.62c0.49-0.12,1.45-0.1,1.96-0.12c1.3-0.03,2.6-0.04,3.9-0.05
							c3.76-0.02,7.53-0.01,11.29,0c3.88,0.02,7.76,0.04,11.64,0.08c1.28,0.01,2.57,0.03,3.85,0.05c0.45,0.01,1.63-0.06,2.01,0.21
							l0.04,0.03c0.2,0.15,0.31,0.35,0.33,0.6L201.33,204.71z"/>
						<path class="st9" d="M150.8,204.46c2.2-0.05,10.28-0.87,11.72,0.5l0.03,0.03c0.15,0.15,0.24,0.33,0.25,0.54l0,0.04
							c0.06,1.05,0.17,2.5-1,3c-0.39,0.17-4.94,0.12-5.57,0.13c-1.19,0.01-2.39,0.02-3.58,0.02c-0.49,0-1.54,0.12-2.12-0.18
							c-0.17-0.09-0.29-0.22-0.37-0.39c-0.29-0.67-0.22-2.07-0.25-2.73l-0.01-0.11c-0.01-0.22,0.06-0.42,0.21-0.59
							c0.15-0.16,0.34-0.25,0.57-0.26L150.8,204.46z"/>
						<path class="st10" d="M234.81,217.71c-0.05-0.77-0.09-1.54-0.14-2.31l-0.01-0.11c-0.01-0.22,0.05-0.42,0.2-0.58
							c0.15-0.17,0.34-0.25,0.56-0.27l0.11-0.01c4.26-0.21,8.52-0.4,12.79-0.58l0.11,0c0.44-0.02,0.81,0.32,0.83,0.76l0.14,2.54
							c0.01,0.22-0.06,0.42-0.21,0.58c-0.15,0.16-0.34,0.25-0.56,0.26l-0.11,0c-4.25,0.17-8.51,0.36-12.76,0.57l-0.11,0
							c-0.44,0.02-0.81-0.31-0.84-0.75L234.81,217.71z"/>
						<path class="st10" d="M193.42,219.8c-0.06-0.76-0.13-1.52-0.19-2.27l-0.01-0.11c-0.02-0.23,0.05-0.43,0.2-0.6
							c0.15-0.17,0.34-0.26,0.57-0.27l0.12,0c2.37-0.1,4.76-0.27,7.13-0.41c3.96-0.24,7.92-0.48,11.88-0.69
							c4.35-0.24,8.7-0.46,13.05-0.58c1.14-0.03,6.18-0.27,7.07,0.36l0.04,0.03c0.2,0.14,0.32,0.35,0.33,0.6l0,0.05
							c0.04,0.61,0.08,1.23,0.12,1.84l0.01,0.11c0.01,0.22-0.05,0.42-0.2,0.58c-0.15,0.17-0.34,0.26-0.56,0.27l-0.11,0.01
							c-12.83,0.66-25.66,1.39-38.5,1.92l-0.11,0c-0.43,0.02-0.8-0.31-0.83-0.73L193.42,219.8z"/>
						<path class="st9" d="M190.32,218.01c0.05,0.61,0.1,1.21,0.15,1.82l0.01,0.12c0.02,0.23-0.05,0.43-0.2,0.6
							c-0.15,0.17-0.34,0.26-0.57,0.27l-0.12,0c-11.02,0.39-22.05,0.63-33.07,0.99l-0.11,0c-0.43,0.01-0.8-0.32-0.83-0.75
							l-0.01-0.11c-0.06-0.96-0.3-2.5,0.47-3.23c0.4-0.39,1.54-0.33,2.07-0.35c1.24-0.05,2.49-0.08,3.73-0.11
							c3.73-0.08,7.46-0.14,11.19-0.18c3.71-0.04,7.42-0.07,11.13-0.06c1.25,0,2.5,0.01,3.74,0.04c0.5,0.01,1.64-0.03,2.05,0.29
							l0.04,0.03c0.19,0.14,0.29,0.34,0.31,0.57L190.32,218.01z"/>
						<path class="st9" d="M211.69,229.45c-0.06-0.76-0.12-1.52-0.18-2.28l-0.01-0.11c-0.02-0.22,0.05-0.42,0.2-0.59
							c0.15-0.17,0.34-0.26,0.56-0.27l0.11-0.01c13.11-0.66,26.23-1.29,39.34-1.84l0.11,0c0.44-0.02,0.81,0.32,0.83,0.76l0.14,2.54
							c0.01,0.22-0.06,0.42-0.21,0.58c-0.15,0.16-0.34,0.25-0.56,0.26l-0.11,0c-13.09,0.55-26.19,1.16-39.27,1.81l-0.11,0.01
							c-0.43,0.02-0.8-0.31-0.84-0.74L211.69,229.45z"/>
						<path class="st10" d="M209.16,227.69c0.05,0.61,0.1,1.22,0.15,1.82l0.01,0.11c0.02,0.23-0.05,0.43-0.2,0.59
							c-0.15,0.17-0.34,0.26-0.56,0.27l-0.11,0.01c-15.05,0.71-30.11,1.18-45.17,1.73l-0.11,0c-0.43,0.02-0.8-0.32-0.83-0.75
							l-0.01-0.11c-0.05-0.77-0.1-1.54-0.16-2.3l-0.01-0.11c-0.02-0.22,0.05-0.42,0.2-0.59c0.15-0.17,0.34-0.26,0.57-0.26l0.11,0
							c7.49-0.26,14.98-0.53,22.48-0.77c4.81-0.15,9.62-0.3,14.43-0.41c1.77-0.04,3.53-0.08,5.3-0.09c1-0.01,2.05-0.03,3.04,0.03
							l0.1,0.01c0.4,0.02,0.72,0.33,0.75,0.73L209.16,227.69z"/>
						<path class="st10" d="M198.69,239.17c0.04,0.61,0.08,1.22,0.12,1.83l0.01,0.11c0.01,0.23-0.06,0.42-0.21,0.59
							c-0.15,0.17-0.34,0.25-0.57,0.26l-0.11,0c-10.12,0.26-20.24,0.2-30.36,0.47l-0.11,0c-0.44,0.01-0.81-0.34-0.82-0.78l0-0.11
							c-0.03-1.06-0.26-2.83,0.77-3.5c0.36-0.23,1.38-0.16,1.8-0.16c1.13,0,2.26,0,3.4,0c3.42,0.01,6.84,0.03,10.25,0.06
							c3.39,0.03,6.77,0.07,10.16,0.14c0.78,0.02,4.77-0.04,5.34,0.42l0.04,0.03c0.18,0.15,0.29,0.34,0.3,0.58L198.69,239.17z"/>
						<path class="st10" d="M185.78,182.76c0.02,1.21-0.06,2.83-1.48,3.24c-1.13,0.33-3.75,0.32-4.96,0.36
							c-2.85,0.08-5.71,0.11-8.57,0.14c-2.6,0.02-5.2,0.04-7.79,0.06c-1.66,0.01-3.33,0.01-4.99,0.07l-0.11,0
							c-0.43,0.02-0.79-0.32-0.8-0.75l0-0.11c-0.03-1.02-0.26-2.67,0.69-3.37c0.55-0.41,4.07-0.38,4.79-0.4
							c3.02-0.09,6.03-0.14,9.05-0.19c3.01-0.04,6.02-0.07,9.03-0.07c1.02,0,2.04,0.01,3.05,0.04c0.49,0.02,1.41-0.02,1.79,0.31
							l0.04,0.03c0.17,0.15,0.27,0.35,0.27,0.58L185.78,182.76z"/>
					</g>
				</g>
				<g>
					<g>
						<path class="st10" d="M129.63,148.95c0.3-0.02,105.58-6.72,125.02-4.22c0.24,0.01,3.78,0.16,4.03,4.9
							c0.14,2.59,0,5.55-0.65,7.88c-0.53,1.9-1.41,3.39-2.76,3.96c-1.57,0.65-37.4,2.64-70.14,4.08
							c-27.56,1.21-52.97,2.03-54.04,1.35c-1.3-0.83-2.6-6.02-2.99-10.56c-0.12-1.43-0.16-2.8-0.08-3.95
							c0.08-1.18,0.28-2.15,0.64-2.74C128.88,149.24,129.21,148.99,129.63,148.95L129.63,148.95L129.63,148.95z M254.6,145.37
							c-19.33-2.5-124.62,4.2-124.93,4.22c-0.2,0.02-0.37,0.16-0.52,0.4c-0.3,0.5-0.48,1.37-0.55,2.46
							c-0.08,1.12-0.04,2.45,0.08,3.85c0.38,4.39,1.56,9.35,2.7,10.08c0.96,0.61,26.23-0.24,53.69-1.45
							c32.7-1.44,68.43-3.4,69.94-4.03c1.15-0.48,1.92-1.83,2.41-3.55c0.63-2.25,0.77-5.14,0.63-7.67c-0.23-4.3-3.42-4.3-3.43-4.3
							L254.6,145.37z"/>
						<path class="st10" d="M132.57,153.19c-0.06,3.38-0.03,6.7,0.2,10.06c0.01,0.19,0.13,0.35,0.3,0.48
							c0.17,0.12,0.35,0.14,0.55,0.15c5.92,0.33,7.6-3.63,1.99-6.12c5.01,1.21,6.43-6.37-2.5-5.07
							C132.82,152.73,132.58,152.91,132.57,153.19z"/>
						<path class="st10" d="M147.31,155l-1.37,5.85c-0.05,0.23-0.24,0.38-0.51,0.4l-1.55,0.08c-0.28,0.02-0.48,0.19-0.51,0.45
							l-0.02,0.14c-0.03,0.21,0.05,0.41,0.22,0.58c0.17,0.17,0.39,0.26,0.61,0.24l5.8-0.37c0.28-0.02,0.48-0.2,0.51-0.46l0.01-0.1
							c0.02-0.2-0.06-0.4-0.23-0.57c-0.17-0.16-0.38-0.25-0.6-0.24l-0.53,0.03c-0.23,0.01-0.46-0.08-0.63-0.27
							c-0.17-0.18-0.24-0.4-0.19-0.61l1.35-5.55c0.05-0.22,0.22-0.36,0.46-0.39l2.23-0.27c0.26-0.03,0.44-0.2,0.47-0.45l0.1-0.78
							c0.03-0.21-0.06-0.42-0.23-0.59c-0.18-0.17-0.4-0.25-0.62-0.23l-6.66,0.6c-0.28,0.03-0.47,0.21-0.49,0.48l-0.03,0.41
							c-0.02,0.21,0.07,0.41,0.24,0.57c0.17,0.16,0.39,0.24,0.6,0.23l0.73-0.06c0.23-0.02,0.46,0.08,0.64,0.26
							C147.29,154.57,147.36,154.79,147.31,155z"/>
						<path class="st10" d="M157.98,160.57l9.22-0.51c0.36-0.02,0.67,0.25,0.69,0.61l0.04,0.62c0.01,0.18-0.05,0.34-0.16,0.47
							c-0.12,0.13-0.27,0.21-0.45,0.22l-9.22,0.51c-0.36,0.02-0.67-0.26-0.69-0.61l-0.04-0.62c-0.01-0.18,0.05-0.34,0.16-0.47
							C157.65,160.65,157.8,160.58,157.98,160.57L157.98,160.57z M158.67,156.43l12.57-0.7c0.36-0.02,0.67,0.25,0.69,0.61l0.04,0.62
							c0.01,0.18-0.04,0.34-0.16,0.47c-0.12,0.13-0.27,0.21-0.45,0.22l-12.57,0.7c-0.36,0.02-0.67-0.25-0.69-0.61l-0.04-0.62
							c-0.01-0.18,0.04-0.34,0.16-0.47C158.34,156.52,158.49,156.44,158.67,156.43L158.67,156.43z M159.3,152.89l6.89-0.38
							c0.36-0.02,0.67,0.25,0.69,0.61l0.04,0.62c0.01,0.18-0.05,0.34-0.16,0.47c-0.12,0.13-0.27,0.21-0.45,0.22l-6.89,0.38
							c-0.36,0.02-0.67-0.25-0.69-0.61l-0.04-0.62c-0.01-0.18,0.04-0.34,0.16-0.47C158.97,152.97,159.12,152.9,159.3,152.89z"/>
						<path class="st10" d="M179.22,152.03l5.81-0.32c0.36-0.02,0.67,0.26,0.69,0.61l0.04,0.62c0.01,0.18-0.05,0.34-0.16,0.47
							c-0.12,0.13-0.27,0.21-0.45,0.22l-5.81,0.32c-0.36,0.02-0.67-0.26-0.69-0.61l-0.04-0.62c-0.01-0.18,0.04-0.34,0.16-0.47
							C178.89,152.12,179.04,152.05,179.22,152.03L179.22,152.03z M178.75,159.31l7.6-0.42c0.36-0.02,0.67,0.26,0.69,0.61l0.04,0.62
							c0.01,0.18-0.05,0.34-0.16,0.47c-0.12,0.13-0.27,0.21-0.45,0.22l-7.6,0.42c-0.36,0.02-0.67-0.26-0.69-0.61l-0.04-0.62
							c-0.01-0.18,0.04-0.34,0.16-0.47C178.42,159.39,178.57,159.32,178.75,159.31L178.75,159.31z M176.4,155.62l12.57-0.7
							c0.36-0.02,0.67,0.25,0.69,0.61l0.04,0.62c0.01,0.18-0.04,0.34-0.16,0.47c-0.12,0.13-0.27,0.21-0.45,0.22l-12.57,0.7
							c-0.36,0.02-0.67-0.25-0.69-0.61l-0.04-0.62c-0.01-0.18,0.04-0.34,0.16-0.47C176.07,155.7,176.22,155.63,176.4,155.62z"/>
						<path class="st10" d="M208.58,157.2l-9.05,0.55c-0.35,0.02-0.66,0.34-0.69,0.71l-0.05,0.63c-0.01,0.18,0.04,0.34,0.15,0.46
							c0.11,0.12,0.26,0.18,0.44,0.17l9.05-0.56c0.35-0.02,0.66-0.34,0.69-0.71l0.05-0.63c0.01-0.18-0.04-0.34-0.15-0.46
							C208.9,157.25,208.75,157.19,208.58,157.2L208.58,157.2z M207.99,153.07l-12.34,0.76c-0.35,0.02-0.66,0.34-0.69,0.71
							l-0.05,0.63c-0.01,0.18,0.04,0.34,0.15,0.46c0.11,0.12,0.26,0.18,0.44,0.17l12.34-0.76c0.35-0.02,0.66-0.34,0.69-0.71
							l0.05-0.63c0.01-0.18-0.04-0.34-0.15-0.46C208.31,153.11,208.17,153.06,207.99,153.07L207.99,153.07z M207.44,149.53
							l-6.77,0.42c-0.35,0.02-0.66,0.34-0.69,0.71l-0.05,0.63c-0.01,0.18,0.04,0.34,0.15,0.46c0.11,0.12,0.26,0.18,0.44,0.17
							l6.77-0.42c0.35-0.02,0.66-0.34,0.69-0.71l0.05-0.63c0.01-0.18-0.04-0.34-0.15-0.46
							C207.76,149.57,207.61,149.52,207.44,149.53z"/>
						<path class="st10" d="M244.16,153.81c2.17-0.81,3.94,3.72,0.38,3.97c-4.8,0.34-5.23-6.06-0.95-7.77
							c0.25-0.1,0.52-0.03,0.68,0.18c0.16,0.21,0.17,0.49,0.01,0.71c-0.48,0.66-0.93,1.51-0.92,2.37c0,0.2,0.09,0.37,0.26,0.48
							C243.79,153.85,243.98,153.88,244.16,153.81L244.16,153.81z M251.4,153.92c-0.18,0.07-0.37,0.05-0.54-0.06
							c-0.16-0.11-0.25-0.28-0.26-0.48c-0.01-0.85,0.44-1.7,0.92-2.37c0.16-0.22,0.15-0.5-0.01-0.71c-0.16-0.21-0.44-0.28-0.68-0.18
							c-4.28,1.72-3.85,8.12,0.95,7.77C255.34,157.64,253.57,153.1,251.4,153.92z"/>
						<path class="st10" d="M215.91,151.84c0,0,1.54-1.16,2.64-1.12c1.1,0.04,2.52,0.67,2.75,2.89c0.23,2.22,0.87,1.56,0.87,1.56
							l0.06,1.62c0,0-1.94,0.94-2.16-0.69c0,0-0.78,1.73-2.88,1.57c-2.1-0.16-1.91-2.6-1.23-3.28c0.68-0.68,3.02-1.68,3.67-0.9
							c0,0-1.19-1.75-2.77-0.3L215.91,151.84L215.91,151.84z M235.55,150.56c0,0-2.39-2.3-4.39-0.37c-2,1.93-1.2,5.45,0.65,5.82
							c1.84,0.37,3.63-1.22,3.63-1.22l-0.88-1.26c0,0-2.54,2.04-2.86-0.29c-0.32-2.33,1.75-2.74,2.23-1.6L235.55,150.56
							L235.55,150.56z M223.39,148.67c0.58-0.28,2.23-0.49,2.23-0.49l-0.42,3.82c4.06-2.98,5.08,1.71,3.74,3.71
							c-1.34,2-3.55,0.28-3.55,0.28l0.04,0.97l-2.21,0.16L223.39,148.67L223.39,148.67z M225.42,153.47c0,0-0.02,0.94,0.58,1.25
							c0.6,0.31,2.13-0.25,1.74-1.51C227.35,151.95,225.42,153.47,225.42,153.47L225.42,153.47z M219.27,154.79
							c0,0-2.75-0.13-2.39,0.86c0.36,1,2.46,0.1,2.53-0.31C219.48,154.94,219.27,154.79,219.27,154.79z"/>
					</g>
					<g>
						<path class="st11" d="M237.15,123.45c0.88-1.97,20.65-3.21,19.33,0.69c-1.32,3.9-2.89,9.59-3.5,13.06
							c-0.61,3.47-17.62,2.36-18.03,0.18C234.54,135.2,235.22,128.51,237.15,123.45z"/>
						<path class="st3" d="M238.97,128.62l10.04-3.16c0.26-0.08,0.52-0.02,0.71,0.17c0.19,0.19,0.26,0.46,0.18,0.71l-2.69,8.67
							c-0.07,0.23-0.23,0.39-0.46,0.47c-0.23,0.07-0.45,0.04-0.65-0.11l-3.22-2.42c-0.17-0.13-0.27-0.31-0.28-0.52
							c-0.01-0.21,0.06-0.4,0.21-0.55l2.96-2.91l-4.71,2.16c-0.24,0.11-0.51,0.08-0.72-0.08l-1.58-1.19
							c-0.22-0.16-0.32-0.42-0.27-0.69C238.52,128.91,238.7,128.7,238.97,128.62z"/>
					</g>
					<path class="st8" d="M139.99,132.51c0,0,58.23-4.65,60.44-4.42c2.22,0.24,0.79,12.86-1.2,13.1c-1.99,0.24-62.5,5.5-64.12,3.18
						C133.49,142.04,135.24,133.59,139.99,132.51z"/>
				</g>
			</g>
			<g>
				<path class="st11" d="M215.29,270.26l77.12,8.38c2.07,0.17,8.38,1.84,5.85,10.08c0,0-3.8-1.31-9.04-1.7
					c-5.66,20.46-0.01,48.16,15.59,58.21l-74.28-3.15L215.29,270.26z"/>
				<path class="st12" d="M215.29,270.26l55.38,6.02c-9.95,20.27-20.8,56.13,18.51,68.28l-58.64-2.49L215.29,270.26z"/>
				<path class="st6" d="M298.27,288.72c0,0-3.8-1.31-9.04-1.7C293.43,275.42,299.24,283.04,298.27,288.72z"/>
			</g>
			<g>
				<path class="st9" d="M177.65,250.72l32.68,2.44c0.39,0.03,0.71,0.23,0.94,0.54c0.23,0.32,0.31,0.68,0.23,1.06
					c-0.6,2.86,0.06,8.42,0.65,9.73l-34.8-1.95L177.65,250.72z"/>
				<path class="st6" d="M181.04,259.26c18.22,1.33,36.68,1.6,72.58,5.32c-1.23,78.86,34.87,79.96,55.67,80.84l-98.09-4.16
					c-33.26-12.26-84.49-48.13-96.4-95.48l64.47,3.61c0.37,0.02,0.68,0.22,0.9,0.52c0.23,0.3,0.31,0.64,0.26,1.01
					C180.02,253.57,180.12,256.33,181.04,259.26z"/>
				<path class="st3" d="M140.61,272.48c-4.14-0.31-4.38-4.38-1.47-4.16l18.61,1.42c2.48,0.19,3.18,4.29,1.47,4.16L140.61,272.48z"
					/>
				<path class="st4" d="M159.03,284.42c-1.16-0.07-2.11-1.04-2.13-2.18c-0.01-1.14,0.92-2,2.08-1.93l25.46,1.5
					c0.54,0.03,1,0.25,1.38,0.65c0.38,0.4,0.56,0.87,0.55,1.39l-0.01,0.39c-0.03,1-0.86,1.74-1.88,1.68L159.03,284.42L159.03,284.42
					z M195.26,282.45l21.81,1.29c1.02,0.06,1.87,0.9,1.93,1.9l0.02,0.39c0.03,0.53-0.15,0.98-0.51,1.33
					c-0.37,0.36-0.83,0.52-1.37,0.49l-21.86-1.29c-0.56-0.03-1.04-0.27-1.42-0.7c-0.38-0.43-0.55-0.93-0.5-1.47l0.04-0.38
					C193.48,283.06,194.28,282.39,195.26,282.45L195.26,282.45z M225.75,284.25l13.8,0.81c1.16,0.07,2.11,1.04,2.13,2.18
					c0.01,1.14-0.92,2-2.08,1.93l-13.8-0.81c-0.53-0.03-0.99-0.25-1.37-0.64c-0.38-0.39-0.57-0.85-0.56-1.37l0-0.39
					C223.88,284.95,224.71,284.19,225.75,284.25z"/>
				<path class="st4" d="M166.02,295.05c-1.16-0.06-2.12-1.03-2.15-2.17c-0.03-1.14,0.88-2.02,2.03-1.96l11.89,0.62
					c0.54,0.03,1,0.25,1.38,0.65c0.38,0.4,0.57,0.87,0.56,1.4l-0.01,0.39c-0.02,1-0.83,1.75-1.85,1.7L166.02,295.05L166.02,295.05z
					 M190,292.16l22.63,1.17c1.16,0.06,2.12,1.03,2.15,2.17c0.03,1.14-0.88,2.02-2.04,1.96l-22.63-1.17
					c-1.02-0.05-1.88-0.9-1.94-1.9l-0.02-0.39c-0.03-0.53,0.13-0.98,0.49-1.34C189.01,292.3,189.46,292.13,190,292.16z"/>
				<path class="st9" d="M176.92,305.27c-1.19-0.07-2.33-1.03-2.53-2.15c-0.21-1.12,0.59-1.97,1.79-1.9l18.64,1.05
					c1.19,0.07,2.32,1.03,2.53,2.15c0.21,1.12-0.59,1.97-1.79,1.9L176.92,305.27z"/>
				<path class="st3" d="M173.4,313.44c-4.32-0.34-4.19-4.45-1.7-4.26l15.05,1.21c2.19,0.17,3.68,4.41,1.7,4.26L173.4,313.44z"/>
				<path class="st9" d="M201.73,320.86c-1.16-0.04-2.17-1-2.24-2.14c-0.08-1.14,0.8-2.03,1.96-1.98l5.67,0.23
					c1,0.04,1.88,0.83,2.01,1.82l0.05,0.39c0.07,0.54-0.07,1-0.42,1.38c-0.35,0.38-0.81,0.56-1.35,0.54L201.73,320.86L201.73,320.86
					z M214.79,317.27l27.96,1.12c1.16,0.04,2.17,1,2.24,2.14c0.08,1.14-0.8,2.03-1.96,1.98l-27.95-1.12
					c-1.02-0.04-1.91-0.86-2.02-1.86l-0.04-0.39c-0.06-0.53,0.09-0.99,0.44-1.35C213.8,317.43,214.25,317.25,214.79,317.27z"/>
				<path class="st4" d="M204.18,329.48c-1.15-0.05-2.19-1.02-2.31-2.17c-0.12-1.15,0.72-2.04,1.87-1.99l14.67,0.67
					c1.15,0.05,2.19,1.02,2.31,2.17c0.12,1.15-0.72,2.04-1.87,1.99L204.18,329.48z"/>
				<path class="st11" d="M172.7,252.09c1.62-0.19,3.24,0.94,3.62,2.53c0.38,1.59-0.62,3.04-2.24,3.24
					c-1.62,0.19-3.24-0.94-3.62-2.53C170.08,253.73,171.08,252.28,172.7,252.09z"/>
				<path class="st11" d="M244.07,303.13l-2.31,3.23c-0.26,0.36-0.3,0.81-0.1,1.21c0.2,0.4,0.58,0.64,1.02,0.65l5.23,0.12
					c0.48,0.01,0.89-0.24,1.09-0.68c0.2-0.43,0.14-0.91-0.18-1.27l-2.92-3.36c-0.24-0.28-0.57-0.42-0.94-0.4
					C244.6,302.66,244.29,302.83,244.07,303.13z"/>
			</g>
			<g>
				<g>
					<path class="st4" d="M303.24,338.57c0,0,45.7-81.45,50.69-196.51c0,0,214.52,43.29,255.33,61.27
						C574.55,267.26,413.29,271,411.31,342.97c-0.05,1.86-0.76,3.43-2.12,4.7c-1.36,1.27-2.98,1.87-4.84,1.79L299.43,345
						L303.24,338.57z"/>
					<path class="st5" d="M303.24,338.57c0,0,9.37-16.7,20.08-45.65c15.02,18.3,45.33,35.5,104.79,15.19
						c-10.13,9.71-16.42,21.02-16.8,34.86c-0.05,1.86-0.76,3.43-2.12,4.7c-1.36,1.27-2.98,1.87-4.84,1.79L299.43,345L303.24,338.57z
						"/>
				</g>
				<g>
					<path class="st3" d="M351.73,171.52c1-9.54,1.76-19.37,2.19-29.45c0,0,214.52,43.29,255.33,61.27
						c-3.98,7.33-9.11,13.78-15.1,19.55C553.9,207.76,384.71,177.36,351.73,171.52z"/>
					<path class="st11" d="M365.81,154.76c3.24-0.83,6.54,1.12,7.37,4.36c0.83,3.24-1.12,6.54-4.36,7.37s-6.54-1.12-7.37-4.36
						C360.61,158.89,362.57,155.59,365.81,154.76z"/>
					<path class="st4" d="M399.08,162.88c3.24-0.83,6.54,1.12,7.37,4.36c0.83,3.24-1.12,6.54-4.36,7.37
						c-3.24,0.83-6.54-1.12-7.37-4.36C393.89,167.01,395.84,163.71,399.08,162.88z"/>
					<path class="st13" d="M381.9,158.5c3.24-0.83,6.54,1.12,7.37,4.36c0.83,3.24-1.12,6.54-4.36,7.37
						c-3.24,0.83-6.54-1.12-7.37-4.36C376.71,162.63,378.66,159.33,381.9,158.5z"/>
				</g>
				<g>
					<g>
						<path class="st5" d="M318.51,327.74c17.59-33.11,49.05-144.61,44.04-141.37c7.3,1.72,83.76,18.96,94.08,22.26
							c1.53,0.49-71.77,91-80.8,121.07c-0.34,1.12-1.31,1.87-2.48,1.9c-23.7,0.64-31.45-0.1-52.34-0.27
							c-0.9-0.01-1.66-0.41-2.17-1.15C318.31,329.44,318.09,328.53,318.51,327.74z"/>
						<path class="st6" d="M318.51,327.74c3.5-6.59,7.55-16.29,11.75-27.56c10.83,9.69,27.02,17.49,50.97,17.09
							c-2.5,4.78-4.37,9-5.4,12.43c-0.34,1.12-1.31,1.87-2.48,1.9c-23.7,0.64-31.45-0.1-52.34-0.27c-0.9-0.01-1.66-0.41-2.17-1.15
							C318.31,329.44,318.09,328.53,318.51,327.74z"/>
						<path class="st6" d="M318.23,327.59c12.23-23.03,31.2-84.05,39.9-117.91c1.8-6.99,3.16-12.82,3.93-16.91
							c0.63-3.34,0.92-5.46,0.78-6.01l-1.07-0.25l0.62-0.4c0.14-0.09,0.28-0.13,0.42-0.12c0.11,0.01,0.21,0.07,0.28,0.18
							c1.67,0.39,5.46,1.25,10.57,2.42c23.39,5.34,74.73,17.07,83.07,19.74c0.23,0.07,0.3,0.25,0.21,0.51
							c-0.32,1.01-5.27,7.57-12.59,17.29c-21.01,27.88-61.65,81.81-68.22,103.65c-0.19,0.63-0.56,1.15-1.04,1.52
							c-0.48,0.37-1.08,0.59-1.74,0.61c-15.83,0.43-24.55,0.24-34.81,0.01c-5.1-0.11-10.58-0.23-17.54-0.29
							c-0.5,0-0.96-0.12-1.38-0.34c-0.41-0.22-0.77-0.54-1.05-0.95c-0.3-0.43-0.51-0.91-0.57-1.41
							C317.93,328.49,318,328.03,318.23,327.59L318.23,327.59z M358.73,209.84c-8.71,33.88-27.69,94.97-39.95,118.04
							c-0.17,0.31-0.21,0.65-0.17,0.98c0.05,0.39,0.22,0.78,0.46,1.13c0.23,0.33,0.51,0.58,0.83,0.75c0.32,0.17,0.69,0.26,1.09,0.26
							c6.93,0.06,12.43,0.18,17.55,0.29c10.26,0.22,18.96,0.41,34.78-0.01c0.52-0.01,0.99-0.19,1.37-0.48
							c0.38-0.29,0.67-0.7,0.82-1.2c6.6-21.95,47.29-75.94,68.32-103.85c6.9-9.16,11.68-15.5,12.41-16.91
							c-9.09-2.81-59.6-14.35-82.75-19.64c-4.75-1.08-8.34-1.91-10.22-2.34c0.14,1.09-0.08,3.15-0.62,6.02
							C361.89,197,360.53,202.85,358.73,209.84z"/>
					</g>
					<g>
						<path class="st3" d="M372.9,245.92c1.73,4.26,25.91,9.09,31,9.78c5.93-11.96,8.37-18.83,15.96-31.11
							c3.02-4.89-33.68-16.67-34.04-16.47C383.99,208.17,371.66,242.87,372.9,245.92z"/>
						<path class="st6" d="M402.03,248.4c-0.54,5.08-9.9,0.98-13.25-0.48c-6.26-2.74-14.77-5.81-7.53-10.53
							C392.33,230.17,403.26,236.82,402.03,248.4L402.03,248.4z M390.67,223.21c-4.59,7.81,8.93,15.9,13.64,7.15
							c2.96-5.51,0.1-9.52-3.36-10.8C397.19,218.18,392.61,219.9,390.67,223.21z"/>
					</g>
					<g>
						<path class="st3" d="M352.43,253.04c1.91-0.49,3.74,1.23,4.23,3.15c0.49,1.91-0.66,3.86-2.58,4.35
							c-1.91,0.49-3.74-1.23-4.23-3.15C349.36,255.48,350.52,253.53,352.43,253.04z"/>
						<path class="st3" d="M346.13,270.2c1.91-0.49,3.62,1.21,4.11,3.12c0.49,1.91-0.66,3.86-2.58,4.35
							c-1.91,0.49-3.62-1.21-4.11-3.12C343.07,272.64,344.22,270.69,346.13,270.2z"/>
						<path class="st3" d="M340.62,286.1c1.91-0.49,3.5,1.13,3.99,3.05c0.49,1.91-0.66,3.86-2.58,4.35
							c-1.91,0.49-3.5-1.13-3.99-3.05C337.55,288.54,338.71,286.59,340.62,286.1z"/>
						<path class="st3" d="M360.8,260.8c-1.16-0.59-1.62-2.01-1.02-3.17c0.59-1.16,2.02-1.62,3.17-1.02
							c0.06,0.03,22.21,11.45,36.04,14.44c1.27,0.27,2.08,1.53,1.81,2.8c-0.27,1.27-1.53,2.08-2.8,1.81
							C383.54,272.53,360.87,260.83,360.8,260.8z"/>
						<path class="st3" d="M358.42,265.99c-0.74-0.46-0.96-1.43-0.5-2.17c0.46-0.74,1.43-0.96,2.17-0.5
							c0.03,0.02,8.72,5.46,14.85,7.78c0.81,0.31,1.22,1.22,0.92,2.03c-0.31,0.81-1.22,1.22-2.03,0.92
							C367.41,271.62,358.45,266.01,358.42,265.99z"/>
						<path class="st3" d="M378.22,274.77c0.23-0.84,1.1-1.33,1.94-1.1c1.79,1.34,8.02,2.93,10.89,3.13c0.82,0.27,1.27,1.16,1,1.98
							c-0.27,0.82-1.16,1.27-1.98,1C388.33,279.57,377.4,277.73,378.22,274.77z"/>
						<path class="st3" d="M354.1,276.99c-1.17-0.57-1.65-1.99-1.08-3.16c0.58-1.17,1.99-1.65,3.16-1.08
							c-0.2,0.82,14.64,8.86,28.85,12.49c1.23,0.45,1.86,1.8,1.42,3.03c-0.45,1.23-1.8,1.86-3.03,1.42
							C369,285.5,353.9,277.56,354.1,276.99z"/>
						<path class="st3" d="M352.12,282.8c-0.78-0.39-1.09-1.33-0.71-2.11c0.39-0.78,1.33-1.09,2.11-0.71
							c0.02,0.01,6.53,3.28,12.02,5.83c0.79,0.37,1.13,1.31,0.77,2.09c-0.37,0.79-1.3,1.13-2.09,0.77
							C358.95,286.22,352.14,282.81,352.12,282.8z"/>
						<path class="st3" d="M348.34,294.15c-1.02-0.81-1.2-2.29-0.39-3.32c0.81-1.02,2.29-1.2,3.32-0.39
							c10.47,6.47,23.02,9.06,29.59,11.37c1.04,0.79,1.54,1.76,0.75,2.8c-0.79,1.04-2.09,1.45-3.61,0.96
							C368.84,303.31,360.3,300.97,348.34,294.15z"/>
						<path class="st3" d="M345.58,300.03c-0.71-0.5-0.88-1.49-0.37-2.2c0.5-0.71,1.49-0.88,2.2-0.37c0.03,0.02,9.23,5.4,16.98,7.58
							c0.84,0.24,1.32,1.1,1.09,1.94c-0.24,0.84-1.1,1.32-1.94,1.09C355.25,305.73,345.61,300.05,345.58,300.03z"/>
					</g>
				</g>
				<g>
					<path class="st5" d="M465.08,210.26c9.73,1.05,52.01,6.61,102.86,23.12c0.95,0.31,1.24,1.47,1.14,2.46
						c-0.1,0.99-0.69,1.8-1.6,2.19c-11.21,4.82-57.83,25.47-76.77,32.81c-0.61,0.24-1.22,0.25-1.84,0.03
						c-5.47-1.89-34.01-11.71-51.76-16.98c-0.89-0.26-1.53-0.9-1.8-1.79c-0.27-0.89-0.09-1.78,0.51-2.49
						c4.67-5.57,16.46-20.86,26.67-38.07C463.04,210.64,464.02,210.15,465.08,210.26z"/>
					<path class="st6" d="M464.1,221.65c-1.29-0.21-2.16-1.43-1.95-2.72c0.21-1.29,1.43-2.16,2.72-1.95
						c18.15,2.99,23.19,3.68,45.01,12.31c1.1,0.7,1.42,2.17,0.71,3.26c-0.7,1.1-2.17,1.42-3.26,0.71
						C488.76,225.49,481.56,224.54,464.1,221.65z"/>
					<path class="st4" d="M461.17,228.92c-1.29-0.2-2.16-1.41-1.96-2.7c0.79-4.98,26.47,3.05,29.31,3.91
						c1.19,0.54,1.71,1.94,1.17,3.12c-0.54,1.19-1.94,1.71-3.12,1.17C473.58,229.96,460.43,229.21,461.17,228.92z"/>
					<path class="st6" d="M481.66,264.77c-1.21-0.48-1.79-1.6-1.31-2.81c0.48-1.21,1.86-1.8,3.07-1.32c2.6,1.03,5.2,2.07,7.8,3.1
						c1.21,0.48,2.09,1.97,1.61,3.18c-0.48,1.21-2.16,1.43-3.37,0.95C486.86,266.84,484.26,265.8,481.66,264.77z"/>
				</g>
				<g>
					<path class="st6" d="M432.69,257.51c6.96,0.63,34.8,7.74,45.23,13.67c1.04,0.44,1.67,1.42,1.64,2.55
						c-0.14,4.38-55.32,16.77-70.26,58.81c-0.42,1.19-1.57,1.9-2.83,1.76l-23.52-2.74c-0.88-0.1-1.58-0.57-2.02-1.34
						c-0.43-0.77-0.47-1.62-0.1-2.42c4.95-10.87,22.24-45.92,49.23-69.77C430.8,257.38,431.76,257.19,432.69,257.51z"/>
					<path class="st13" d="M447.65,272.73c-0.85-0.17-1.41-1-1.24-1.85c0.17-0.85,1-1.41,1.85-1.24l0.26,0.05
						c1.54,0.3,7.59,2.05,13.93,5.96c0.74,0.46,0.82,1.59,0.36,2.33c-0.46,0.74-1.43,0.97-2.17,0.51
						c-5.85-3.62-11.32-5.43-12.72-5.71L447.65,272.73z"/>
					<path class="st13" d="M443.85,276.09c-1.01-0.8-0.18-2.49,1.49-2.14c1.36,0.32,3.89,0.82,8.38,2.92
						c0.71,0.51,0.87,1.49,0.36,2.2c-0.51,0.71-1.45,0.8-2.2,0.36C450.26,278.5,446.43,277.78,443.85,276.09z"/>
					<path class="st4" d="M427.15,283.56c-0.9-0.26-1.49-1.12-1.32-1.91c0.17-0.8,1.03-1.23,1.93-0.97l0.27,0.08
						c1.62,0.47,7.97,2.84,14.65,7.33c0.78,0.52,0.87,1.61,0.4,2.26c-0.47,0.65-1.49,0.76-2.27,0.23
						c-6.16-4.14-11.91-6.51-13.39-6.94L427.15,283.56z"/>
					<path class="st4" d="M416.39,285.04c-0.85-0.21-1.36-1.06-1.15-1.91c0.21-0.85,1.06-1.36,1.91-1.15l0.26,0.06
						c1.53,0.38,7.48,2.41,13.62,6.63c0.72,0.49,0.74,1.62,0.25,2.34c-0.49,0.72-1.47,0.9-2.19,0.4
						c-5.67-3.89-11.04-5.97-12.43-6.31L416.39,285.04z"/>
					<path class="st13" d="M424.19,294.85c-0.81-0.31-1.41-1-1.24-1.85c0.47-2.38,3.33-0.74,4.71-0.1c0.69,0.32,1.47,0.76,2.84,1.6
						c0.74,0.46,0.82,1.59,0.36,2.33c-0.46,0.74-1.43,0.97-2.17,0.51C426.62,296.06,426.1,295.57,424.19,294.85z"/>
					<path class="st4" d="M412.91,297.85c-0.81-0.31-1.41-1-1.24-1.85c0.47-2.38,3.33-0.74,4.71-0.1c0.69,0.32,1.47,0.76,2.84,1.6
						c0.74,0.46,0.82,1.59,0.36,2.33c-0.46,0.74-1.43,0.97-2.17,0.51C415.34,299.06,414.82,298.57,412.91,297.85z"/>
					<path class="st5" d="M396.16,311.38c-0.81-0.31-1.41-1-1.24-1.85c0.47-2.38,3.33-0.74,4.71-0.1c0.69,0.32,1.47,0.76,2.84,1.6
						c0.74,0.46,0.82,1.59,0.36,2.33c-0.46,0.74-1.43,0.97-2.17,0.51C398.59,312.59,398.06,312.11,396.16,311.38z"/>
					<path class="st13" d="M442.02,267.94c-0.04,2.77-2.74,5.1-6.04,5.2c-3.3,0.09-5.94-2.08-5.91-4.85c0.04-2.77,2.74-5.1,6.04-5.2
						C439.41,262.99,442.06,265.16,442.02,267.94z"/>
				</g>
			</g>
			<path class="st3" d="M304.82,345.65c4.77-5.47,18.33-21.57,26.39-36.57c0,0,51.07,22.82,74.11,21.18c0,0-23.41,5.91-35.29,18.19
				L304.82,345.65z"/>
			
				<rect x="303.73" y="240.76" transform="matrix(0.0408 -0.9992 0.9992 0.0408 -53.1801 634.889)" class="st6" width="0.71" height="208.77"/>
		</g>
		<g>
			<path class="st5" d="M169.63,415.24l-14.91,7.58l5.13,7.78c0,0,2.47,2.33,8.75,2.3c6.28-0.03,268.37,6.58,268.37,6.58
				s5.76,0.88,8.99-7.75L169.63,415.24z"/>
			<path class="st4" d="M188.66,350.55l-33.5,69.39c0,0-2.91,6.07,5.45,5.89c8.36-0.18,282.71,8.06,282.71,8.06
				s6.87-3.43,3.41-10.71c-3.46-7.29-27.65-64.14-27.65-64.14L188.66,350.55z"/>
			<path class="st5" d="M211.36,355.85l12.18,0.55c0.43,0.02,0.79,0.24,1.02,0.61c0.23,0.38,0.27,0.81,0.11,1.21l-1.65,4.14
				c-0.2,0.5-0.65,0.8-1.17,0.79l-15.86-0.47c-0.45-0.01-0.83-0.25-1.06-0.66c-0.23-0.41-0.24-0.87-0.03-1.28l0.76-1.5
				C206.78,357.01,208.91,355.74,211.36,355.85L211.36,355.85z M381.79,388.67l5.57,0.14l0.02,0l22.86,0.55
				c0.43,0.01,0.81-0.19,1.05-0.56c0.24-0.37,0.28-0.81,0.11-1.23l-1.77-4.43l-0.3-0.76l-0.01-0.02l0,0l-2.28-5.7l0,0l-0.01-0.02
				l-0.43-1.07l-1.22-3.06c-0.2-0.49-0.63-0.81-1.14-0.82l-20.15-0.6c-0.4-0.01-0.74,0.15-0.99,0.47c-0.25,0.32-0.34,0.7-0.25,1.11
				l0.57,2.62h0l0.01,0.04l0.36,1.63c0.01,0.06,0.03,0.12,0.05,0.18l0.87,3.83l-7.55-0.07l-19.46-0.43
				c-0.37-0.01-0.7,0.14-0.94,0.42c-0.25,0.29-0.35,0.64-0.31,1.02l0.6,5.04c0.08,0.66,0.6,1.15,1.24,1.17l23.47,0.57L381.79,388.67
				L381.79,388.67z M272.91,389.12L272.91,389.12l8.77,0.21l0.02,0l13.45,0.33v0l19.06,0.46c0.35,0.01,0.65,0.15,0.9,0.42
				c0.24,0.27,0.36,0.59,0.35,0.96l-0.24,7.26c-0.02,0.71-0.59,1.26-1.27,1.24L293,399.33l-6.74-0.21l-0.02,0l-0.02,0l-5.44-0.17
				l-0.03,0l-36.08-1.15c-0.4-0.01-0.73-0.2-0.98-0.53c-0.24-0.33-0.32-0.72-0.22-1.12l1.62-6.71c0.14-0.59,0.64-0.98,1.23-0.97
				L272.91,389.12L272.91,389.12z M229.4,356.66l18.79,0.85c0.39,0.02,0.73,0.2,0.97,0.53c0.24,0.33,0.31,0.72,0.22,1.11l-0.92,3.79
				c-0.14,0.59-0.64,0.98-1.23,0.97l-19.49-0.58c-0.43-0.01-0.8-0.23-1.03-0.6c-0.24-0.38-0.28-0.81-0.11-1.22l1.62-4.05
				C228.41,356.94,228.87,356.64,229.4,356.66L229.4,356.66z M253.78,357.76l31.77,1.43c0.37,0.02,0.68,0.18,0.92,0.47
				c0.24,0.3,0.34,0.64,0.29,1.02l-0.41,3.24c-0.08,0.66-0.62,1.13-1.26,1.11l-32.25-0.96c-0.4-0.01-0.74-0.19-0.98-0.53
				c-0.24-0.33-0.32-0.72-0.22-1.12l0.9-3.7C252.68,358.13,253.19,357.73,253.78,357.76L253.78,357.76z M291.05,359.44l24.15,1.09
				c0.35,0.02,0.64,0.16,0.88,0.43c0.24,0.27,0.35,0.58,0.34,0.95l-0.09,2.8c-0.02,0.71-0.59,1.26-1.27,1.24l-24.46-0.73
				c-0.37-0.01-0.69-0.17-0.93-0.47c-0.24-0.3-0.34-0.65-0.29-1.03l0.4-3.15C289.85,359.89,290.4,359.41,291.05,359.44
				L291.05,359.44z M320.66,360.77l29.4,1.32c0.62,0.03,1.13,0.52,1.21,1.17l0.27,2.28c0.05,0.39-0.06,0.74-0.31,1.03
				c-0.25,0.29-0.58,0.43-0.95,0.42l-29.76-0.89c-0.35-0.01-0.65-0.15-0.89-0.42c-0.24-0.27-0.36-0.59-0.35-0.95l0.09-2.71
				C319.4,361.3,319.97,360.74,320.66,360.77L320.66,360.77z M355.58,362.35l21.23,0.96c0.58,0.03,1.06,0.44,1.19,1.03l0.41,1.88
				c0.09,0.41,0,0.79-0.25,1.11c-0.25,0.32-0.59,0.48-0.99,0.47l-21.38-0.64c-0.63-0.02-1.15-0.51-1.23-1.17l-0.26-2.2
				c-0.05-0.39,0.06-0.75,0.32-1.03C354.87,362.47,355.2,362.33,355.58,362.35L355.58,362.35z M382.46,363.56l15.65,0.71
				c1.73,0.08,3.26,0.83,4.37,2.07c0.35,0.4,0.44,0.94,0.24,1.42c-0.21,0.49-0.65,0.78-1.16,0.76l-18.75-0.56
				c-0.59-0.02-1.08-0.44-1.21-1.04l-0.39-1.79c-0.09-0.41,0-0.8,0.25-1.11C381.71,363.7,382.06,363.54,382.46,363.56L382.46,363.56
				z M413.7,393.33l0.28,0.7c3.18,7.96,2.89,9.23-5.87,8.96l-17.75-0.56c-0.59-0.02-1.07-0.44-1.2-1.03l-1.73-7.88
				c-0.09-0.4,0-0.79,0.24-1.11c0.25-0.32,0.59-0.48,0.99-0.47l23.9,0.58C413.07,392.52,413.5,392.83,413.7,393.33L413.7,393.33z
				 M384.72,402.24l-24.85-0.79c-0.63-0.02-1.15-0.51-1.23-1.17l-0.91-7.63c-0.05-0.39,0.06-0.74,0.31-1.02
				c0.25-0.29,0.57-0.43,0.95-0.42l24.04,0.58c0.59,0.01,1.08,0.44,1.21,1.04l1.72,7.84c0.09,0.41,0,0.79-0.25,1.11
				C385.47,402.09,385.12,402.25,384.72,402.24L384.72,402.24z M354.36,401.28l-34.95-1.11c-0.35-0.01-0.65-0.15-0.89-0.42
				c-0.24-0.27-0.36-0.59-0.35-0.95l0.24-7.3c0.02-0.71,0.58-1.26,1.26-1.24l33.81,0.82c0.63,0.02,1.16,0.51,1.24,1.17l0.9,7.59
				c0.05,0.39-0.06,0.74-0.31,1.03C355.06,401.15,354.73,401.29,354.36,401.28L354.36,401.28z M239.06,397.62l-24.74-0.79
				c-0.43-0.01-0.79-0.23-1.03-0.61c-0.24-0.38-0.28-0.81-0.11-1.22l2.59-6.46c0.2-0.5,0.65-0.8,1.17-0.79l23.77,0.58
				c0.4,0.01,0.74,0.19,0.98,0.52c0.24,0.33,0.32,0.72,0.23,1.12l-1.62,6.67C240.15,397.24,239.65,397.64,239.06,397.62
				L239.06,397.62z M208.43,396.65l-11.26-0.36c-9.87-0.31-7.97-4.81-6.09-8.46c0.23-0.44,0.64-0.68,1.12-0.67l18.83,0.46
				c0.43,0.01,0.8,0.22,1.04,0.6c0.24,0.38,0.28,0.81,0.11,1.22l-2.57,6.42C209.41,396.36,208.95,396.66,208.43,396.65
				L208.43,396.65z M193.96,382.21l2.35-4.62c0.22-0.44,0.64-0.69,1.12-0.68l17.73,0.39c0.43,0.01,0.8,0.22,1.04,0.6
				c0.24,0.38,0.28,0.81,0.11,1.23l-1.87,4.67c-0.2,0.5-0.65,0.8-1.17,0.79l-18.21-0.44c-0.45-0.01-0.84-0.25-1.07-0.65
				C193.76,383.08,193.75,382.62,193.96,382.21L193.96,382.21z M199.17,371.96l2.86-5.62c0.23-0.44,0.64-0.69,1.13-0.68l16.46,0.49
				c0.43,0.01,0.8,0.23,1.03,0.6c0.24,0.38,0.28,0.81,0.11,1.22l-2.2,5.5c-0.2,0.5-0.64,0.8-1.17,0.79l-17.12-0.38
				c-0.45-0.01-0.84-0.25-1.07-0.65C198.97,372.83,198.96,372.37,199.17,371.96L199.17,371.96z M224.33,367.12l-2.18,5.46
				c-0.16,0.41-0.12,0.85,0.11,1.22c0.24,0.38,0.61,0.59,1.04,0.6l21.27,0.47c0.58,0.01,1.08-0.38,1.22-0.97l1.29-5.32
				c0.1-0.4,0.02-0.79-0.22-1.12c-0.24-0.33-0.58-0.51-0.98-0.53l-20.38-0.61C224.98,366.32,224.53,366.62,224.33,367.12
				L224.33,367.12z M219.89,378.22l-1.87,4.68c-0.16,0.41-0.12,0.85,0.11,1.22c0.24,0.38,0.61,0.59,1.04,0.6l22.88,0.56
				c0.59,0.01,1.08-0.38,1.23-0.97l1.15-4.75c0.1-0.4,0.02-0.79-0.23-1.12c-0.24-0.33-0.59-0.51-0.99-0.52l-22.16-0.49
				C220.54,377.42,220.09,377.72,219.89,378.22L219.89,378.22z M247.67,385.42l34.71,0.84c0.64,0.02,1.17-0.46,1.25-1.11l0.62-4.85
				c0.05-0.38-0.05-0.74-0.3-1.04c-0.25-0.3-0.57-0.46-0.94-0.46l-34.18-0.75c-0.58-0.01-1.08,0.38-1.22,0.97l-1.15,4.76
				c-0.1,0.4-0.02,0.79,0.22,1.12C246.94,385.23,247.28,385.41,247.67,385.42L247.67,385.42z M287.89,386.4l26.48,0.64
				c0.68,0.02,1.24-0.53,1.26-1.24l0.16-4.93c0.01-0.37-0.11-0.69-0.35-0.96c-0.24-0.27-0.55-0.41-0.9-0.42l-26.02-0.57
				c-0.63-0.01-1.17,0.46-1.25,1.11l-0.62,4.86c-0.05,0.38,0.05,0.74,0.3,1.03C287.2,386.23,287.52,386.39,287.89,386.4
				L287.89,386.4z M319.84,387.17l32.94,0.8c0.37,0.01,0.7-0.13,0.95-0.42c0.25-0.29,0.35-0.64,0.31-1.02l-0.6-5.03
				c-0.08-0.66-0.6-1.15-1.24-1.17l-32.18-0.71c-0.68-0.02-1.24,0.54-1.26,1.24l-0.16,4.94c-0.01,0.37,0.11,0.69,0.35,0.95
				C319.19,387.02,319.49,387.16,319.84,387.17L319.84,387.17z M250.2,374.99l33.53,0.74c0.64,0.01,1.17-0.46,1.25-1.11l0.64-5.03
				c0.05-0.38-0.05-0.73-0.29-1.03c-0.24-0.3-0.56-0.46-0.93-0.47l-32.89-0.98c-0.59-0.02-1.09,0.38-1.23,0.97l-1.28,5.27
				c-0.1,0.4-0.02,0.79,0.23,1.12C249.46,374.8,249.8,374.98,250.2,374.99L250.2,374.99z M289.24,375.85l25.48,0.56
				c0.68,0.02,1.24-0.54,1.26-1.24l0.16-4.8c0.01-0.36-0.1-0.68-0.35-0.95c-0.24-0.27-0.54-0.41-0.89-0.42l-25-0.75
				c-0.64-0.02-1.18,0.46-1.26,1.11l-0.64,4.98c-0.05,0.38,0.05,0.74,0.3,1.04C288.55,375.69,288.87,375.85,289.24,375.85
				L289.24,375.85z M320.19,376.54l31.32,0.69c0.37,0.01,0.7-0.14,0.94-0.42c0.25-0.29,0.35-0.64,0.31-1.02l-0.54-4.53
				c-0.08-0.65-0.6-1.15-1.23-1.17l-30.62-0.92c-0.68-0.02-1.25,0.53-1.27,1.24l-0.16,4.76c-0.01,0.37,0.11,0.69,0.35,0.96
				C319.54,376.39,319.84,376.53,320.19,376.54L320.19,376.54z M357.02,377.35c-0.63-0.01-1.16-0.51-1.24-1.17l-0.53-4.49
				c-0.05-0.39,0.06-0.74,0.31-1.03c0.25-0.29,0.58-0.43,0.95-0.42l21.96,0.66c0.59,0.02,1.08,0.44,1.21,1.04l0.95,4.32
				c0.09,0.4,0,0.79-0.24,1.1c-0.25,0.32-0.59,0.48-0.99,0.47L357.02,377.35z"/>
			<path class="st5" d="M270.24,401.65l68.75,1.37c0.63,0.01,1.12,0.44,1.29,1.03l5.87,20.82c0.11,0.4-0.01,0.79-0.28,1.11
				c-0.28,0.32-0.65,0.46-1.08,0.45l-82.83-1.78c-0.45-0.01-0.82-0.24-1.06-0.61c-0.24-0.37-0.27-0.79-0.11-1.19l8.21-20.41
				C269.19,401.94,269.68,401.64,270.24,401.65z"/>
		</g>
	</g>
	<g>
		<g>
			<path class="st3" d="M502.63,333.24l19.3,4.39c2.46,0.56,4.46,2.07,5.71,4.06c1.25,1.99,1.75,4.45,1.19,6.91
				c-0.56,2.46-2.07,4.46-4.06,5.71c-1.99,1.25-4.45,1.75-6.91,1.19l-19.3-4.39c-2.46-0.56-4.46-2.07-5.71-4.06
				c-1.25-1.99-1.75-4.45-1.19-6.91c0.56-2.46,2.07-4.46,4.06-5.71C497.71,333.18,500.17,332.68,502.63,333.24L502.63,333.24z
				 M521.79,338.24l-19.3-4.39c-2.29-0.52-4.58-0.06-6.43,1.11c-1.85,1.16-3.26,3.03-3.78,5.32c-0.52,2.29-0.06,4.58,1.11,6.43
				c1.16,1.85,3.03,3.26,5.32,3.78l19.3,4.39c2.29,0.52,4.58,0.06,6.43-1.11c1.85-1.17,3.26-3.03,3.78-5.32
				c0.52-2.29,0.06-4.58-1.11-6.43C525.95,340.17,524.08,338.76,521.79,338.24z"/>
			<path class="st3" d="M502.14,335.76c3.55,0.81,5.78,4.34,4.97,7.9c-0.81,3.55-4.34,5.78-7.9,4.97c-3.55-0.81-5.78-4.34-4.97-7.9
				C495.05,337.17,498.58,334.95,502.14,335.76z"/>
		</g>
		<g>
			<path class="st3" d="M103.33,272.04c3.95-0.48,8.03,0.66,11.44,2.87c3.41,2.21,6.15,5.51,7.41,9.36
				c1.26,3.85,0.8,7.53-0.96,10.37c-1.76,2.84-4.83,4.83-8.77,5.3c-3.95,0.48-8.03-0.66-11.44-2.87c-3.41-2.21-6.15-5.51-7.41-9.36
				c-1.26-3.85-0.8-7.53,0.96-10.37C96.32,274.51,99.39,272.52,103.33,272.04L103.33,272.04z M113.69,276.67
				c-2.87-1.86-6.31-2.82-9.63-2.42c-3.32,0.4-5.9,2.08-7.38,4.46c-1.48,2.39-1.87,5.49-0.81,8.73c1.06,3.24,3.37,6.02,6.24,7.88
				c2.87,1.86,6.31,2.82,9.63,2.42c3.32-0.4,5.9-2.08,7.38-4.46c1.48-2.39,1.87-5.49,0.81-8.73
				C118.87,281.3,116.56,278.53,113.69,276.67z"/>
			<path class="st3" d="M88.77,249.87c2.63-0.32,5.36,0.44,7.63,1.91c2.27,1.48,4.1,3.67,4.94,6.24c0.84,2.57,0.53,5.03-0.64,6.92
				c-1.17,1.89-3.22,3.22-5.85,3.54c-2.63,0.32-5.36-0.44-7.63-1.91c-2.28-1.48-4.1-3.67-4.94-6.24c-0.84-2.57-0.53-5.02,0.64-6.92
				C84.1,251.52,86.14,250.19,88.77,249.87L88.77,249.87z M95.68,252.96c-1.92-1.24-4.21-1.88-6.42-1.61
				c-2.22,0.27-3.94,1.39-4.93,2.98c-0.99,1.59-1.25,3.66-0.54,5.82c0.71,2.16,2.25,4.01,4.16,5.26c1.92,1.24,4.21,1.88,6.42,1.61
				c2.22-0.27,3.94-1.39,4.93-2.98c0.99-1.59,1.25-3.66,0.54-5.82C99.13,256.05,97.6,254.2,95.68,252.96z"/>
		</g>
		<g>
			<path class="st3" d="M498.27,288.07c-3.66-1.56-7.89-1.62-11.79-0.45c-3.89,1.17-7.45,3.56-9.74,6.91
				c-2.29,3.35-2.88,7.01-1.98,10.22c0.9,3.22,3.28,5.99,6.93,7.55c3.66,1.56,7.89,1.62,11.79,0.45c3.9-1.17,7.45-3.56,9.74-6.91
				c2.29-3.35,2.88-7.01,1.98-10.22C504.3,292.4,501.92,289.63,498.27,288.07L498.27,288.07z M487.03,289.6
				c3.28-0.98,6.85-0.93,9.92,0.38c3.08,1.31,5.08,3.65,5.84,6.35c0.75,2.71,0.26,5.79-1.67,8.61c-1.93,2.82-4.92,4.83-8.2,5.82
				c-3.28,0.98-6.85,0.93-9.92-0.38c-3.08-1.31-5.08-3.65-5.84-6.35c-0.75-2.71-0.26-5.79,1.67-8.61
				C480.76,292.6,483.75,290.59,487.03,289.6z"/>
			<path class="st3" d="M518.46,270.86c-2.44-1.04-5.27-1.08-7.86-0.3c-2.6,0.78-4.97,2.38-6.49,4.61
				c-1.53,2.23-1.92,4.67-1.32,6.82c0.6,2.14,2.19,3.99,4.63,5.03c2.44,1.04,5.27,1.08,7.86,0.3c2.6-0.78,4.97-2.38,6.49-4.61
				c1.53-2.23,1.92-4.67,1.32-6.82C522.48,273.75,520.89,271.91,518.46,270.86L518.46,270.86z M510.96,271.89
				c2.19-0.66,4.57-0.62,6.62,0.25c2.05,0.88,3.39,2.43,3.89,4.24s0.17,3.86-1.11,5.74c-1.28,1.88-3.28,3.22-5.47,3.88
				c-2.19,0.66-4.57,0.62-6.62-0.25c-2.05-0.88-3.39-2.43-3.89-4.24c-0.5-1.81-0.17-3.86,1.11-5.74
				C506.78,273.89,508.78,272.54,510.96,271.89z"/>
		</g>
		<g>
			<g>
				<path class="st3" d="M274.62,69.81l16.42,4c1.36,0.33,2.37,1.27,2.79,2.61c0.42,1.33,0.14,2.69-0.77,3.74l-11.81,13.57
					c-0.97,1.12-2.39,1.58-3.83,1.24c-1.44-0.34-2.51-1.37-2.88-2.81l-4.61-17.58c-0.36-1.37,0-2.72,0.99-3.72
					C271.9,69.86,273.24,69.47,274.62,69.81L274.62,69.81z M286.83,75.15l-9.02-2.2c-1.37-0.33-2.71,0.05-3.71,1.06
					c-0.99,1.01-1.35,2.36-0.99,3.72l2.53,9.65c0.38,1.44,1.44,2.47,2.88,2.81c1.44,0.34,2.86-0.12,3.83-1.24l6.49-7.45
					c0.92-1.06,1.2-2.41,0.77-3.74C289.2,76.42,288.19,75.48,286.83,75.15z"/>
				<path class="st3" d="M252.06,83.99l6.89-7.21c0.57-0.6,1.35-0.83,2.16-0.66c0.81,0.18,1.42,0.72,1.68,1.5l3.45,10.04
					c0.28,0.83,0.1,1.68-0.5,2.32c-0.6,0.64-1.44,0.88-2.29,0.65l-10.34-2.83c-0.8-0.22-1.39-0.8-1.61-1.6
					C251.28,85.39,251.48,84.59,252.06,83.99L252.06,83.99z M258.39,79.32l-3.78,3.96c-0.58,0.6-0.78,1.4-0.55,2.2
					c0.22,0.8,0.81,1.38,1.61,1.6l5.68,1.56c0.84,0.23,1.69-0.01,2.29-0.65c0.6-0.64,0.78-1.49,0.5-2.32l-1.9-5.51
					c-0.27-0.78-0.88-1.32-1.68-1.5C259.74,78.49,258.96,78.72,258.39,79.32z"/>
			</g>
			<path class="st3" d="M573.73,169.53l2.8,9.57c0.23,0.79,0.05,1.59-0.51,2.2c-0.56,0.61-1.33,0.87-2.14,0.71l-10.42-2.03
				c-0.86-0.17-1.51-0.76-1.76-1.59c-0.25-0.84-0.04-1.69,0.58-2.3l7.62-7.54c0.59-0.59,1.39-0.8,2.19-0.59
				C572.91,168.16,573.5,168.73,573.73,169.53L573.73,169.53z M574.61,177.35l-1.54-5.26c-0.23-0.8-0.83-1.37-1.63-1.58
				c-0.81-0.21-1.6,0.01-2.19,0.59l-4.19,4.14c-0.62,0.62-0.84,1.46-0.58,2.3c0.25,0.84,0.9,1.43,1.76,1.59l5.72,1.12
				c0.81,0.16,1.58-0.1,2.14-0.71C574.66,178.94,574.84,178.14,574.61,177.35z"/>
			<path class="st3" d="M148.24,101.73l-8.16,5.73c-0.68,0.47-1.03,1.21-0.98,2.03c0.05,0.82,0.5,1.51,1.23,1.89l9.41,4.92
				c0.78,0.41,1.65,0.35,2.37-0.14c0.72-0.5,1.08-1.29,0.98-2.16l-1.24-10.65c-0.1-0.83-0.58-1.49-1.34-1.83
				C149.75,101.18,148.93,101.25,148.24,101.73L148.24,101.73z M142.68,107.29l4.48-3.14c0.68-0.48,1.5-0.56,2.26-0.22
				c0.76,0.34,1.25,1.01,1.34,1.83l0.68,5.85c0.1,0.87-0.26,1.67-0.98,2.16c-0.72,0.5-1.6,0.55-2.37,0.14l-5.17-2.7
				c-0.73-0.38-1.18-1.07-1.23-1.89C141.65,108.5,142,107.76,142.68,107.29z"/>
		</g>
		<path class="st3" d="M427.23,396.27c1.94-0.45,3.63,0.53,4.35,2.17l48.52-17.06c-0.07-1.8,1.14-3.44,2.96-3.87
			c2.06-0.48,4.11,0.81,4.58,2.86c0.48,2.06-0.81,4.11-2.86,4.58c-0.41,0.1-0.83,0.12-1.23,0.08l-7.64,25.03
			c1.54,0.85,2.32,2.68,1.79,4.43c-0.61,2-2.73,3.13-4.74,2.52c-1.71-0.52-2.79-2.15-2.68-3.86l-39.22-10.78
			c-0.52,0.64-0.66,0.99-2.12,1.33c-1.46,0.34-4.11-0.81-4.58-2.86C423.89,398.8,425.3,396.72,427.23,396.27L427.23,396.27z
			 M482.05,384.57c-0.7-0.4-1.28-1.01-1.62-1.78l-48.52,17.06c0.01,0.38-0.03,0.75-0.12,1.1l38.91,10.7c0.7-1.37,2.18-2.17,3.7-2.04
			L482.05,384.57z"/>
		<g>
			<g>
				<path class="st3" d="M315.72,204.16c2.11,0,3.84-1.72,3.84-3.84c0-2.11-1.72-3.84-3.84-3.84c-2.11,0-3.84,1.72-3.84,3.84
					C311.88,202.43,313.61,204.16,315.72,204.16z"/>
				<path class="st3" d="M321.15,180.95c0.98,0,1.78-0.8,1.78-1.78s-0.8-1.78-1.78-1.78s-1.78,0.8-1.78,1.78
					S320.17,180.95,321.15,180.95z"/>
				<path class="st3" d="M83.56,103.47c1.24,0,2.25-1.01,2.25-2.25c0-1.24-1.01-2.25-2.25-2.25c-1.24,0-2.25,1.01-2.25,2.25
					C81.32,102.46,82.33,103.47,83.56,103.47z"/>
				<path class="st3" d="M413.27,140.05c1.62,0,2.94-1.32,2.94-2.94c0-1.62-1.32-2.94-2.94-2.94c-1.62,0-2.94,1.32-2.94,2.94
					C410.32,138.73,411.65,140.05,413.27,140.05z"/>
				<circle class="st6" cx="442.33" cy="308.02" r="2.43"/>
				<path class="st3" d="M210.02,384.58c2.06,0,3.74-1.68,3.74-3.74c0-2.06-1.68-3.74-3.74-3.74s-3.74,1.68-3.74,3.74
					C206.28,382.9,207.96,384.58,210.02,384.58z"/>
				<path class="st3" d="M280.03,384.64c1.64,0,2.98-1.34,2.98-2.98s-1.34-2.98-2.98-2.98s-2.98,1.34-2.98,2.98
					S278.39,384.64,280.03,384.64z"/>
				<path class="st3" d="M137.09,345.64c0.62,0,1.12-0.5,1.12-1.12c0-0.62-0.5-1.12-1.12-1.12c-0.62,0-1.12,0.5-1.12,1.12
					C135.96,345.14,136.47,345.64,137.09,345.64z"/>
			</g>
			<path class="st3" d="M215.27,101.52c2.17,0,3.93,1.76,3.93,3.93c0,2.17-1.76,3.93-3.93,3.93c-2.17,0-3.93-1.76-3.93-3.93
				C211.34,103.28,213.1,101.52,215.27,101.52L215.27,101.52z M201.14,97.78c0.98,0,1.78,0.8,1.78,1.78c0,0.98-0.8,1.78-1.78,1.78
				c-0.98,0-1.78-0.8-1.78-1.78C199.36,98.57,200.16,97.78,201.14,97.78z"/>
		</g>
		<g>
			<path class="st3" d="M157.47,385.36l19.51-2.35c1.03-0.12,2.01,0.18,2.76,0.78c0.76,0.59,1.29,1.48,1.41,2.5l2.35,19.51
				c0.12,1.03-0.18,2.01-0.78,2.76c-0.59,0.76-1.48,1.29-2.5,1.41l-19.51,2.35c-1.03,0.12-2.01-0.18-2.76-0.78
				c-0.76-0.59-1.29-1.48-1.41-2.5l-2.35-19.51c-0.12-1.03,0.18-2.01,0.78-2.76C155.56,386.02,156.44,385.49,157.47,385.36
				L157.47,385.36z M177.13,384.31l-19.51,2.35c-0.67,0.08-1.24,0.43-1.63,0.92c-0.39,0.49-0.59,1.14-0.51,1.8l2.35,19.51
				c0.08,0.67,0.43,1.24,0.92,1.63c0.49,0.39,1.14,0.59,1.8,0.51l19.51-2.35c0.67-0.08,1.24-0.43,1.63-0.92
				c0.39-0.49,0.59-1.14,0.51-1.8l-2.35-19.51c-0.08-0.67-0.43-1.24-0.92-1.63C178.44,384.43,177.8,384.23,177.13,384.31z"/>
			<path class="st3" d="M153.9,355.76l19.51-2.35c1.03-0.12,2.01,0.18,2.76,0.78c0.76,0.59,1.29,1.48,1.41,2.5l2.35,19.51
				c0.12,1.03-0.18,2.01-0.78,2.76c-0.59,0.76-1.48,1.29-2.5,1.41l-19.51,2.35c-1.03,0.12-2.01-0.18-2.76-0.78
				c-0.76-0.59-1.29-1.48-1.41-2.5l-2.35-19.51c-0.12-1.03,0.18-2.01,0.78-2.76C152,356.41,152.88,355.88,153.9,355.76z"/>
			<path class="st5" d="M155.59,369.19c-0.78-0.62-0.92-1.75-0.31-2.54c0.62-0.78,1.75-0.92,2.54-0.31l5.84,4.59l8-10.18
				c0.62-0.78,1.75-0.92,2.54-0.31c0.78,0.62,0.92,1.75,0.3,2.54l-8.97,11.42c-0.69,0.88-1.98,1.04-2.86,0.34L155.59,369.19z"/>
		</g>
	</g>
	<g>
		<g>
			<path class="st4" d="M427.04,68.34c0,0,94.77,27.77,95.62,32.26c0.85,4.49-26.69,62.56-35.24,62.71
				c-8.56,0.15-72.96-18.66-72.96-18.66S421.7,64.49,427.04,68.34z"/>
			<path class="st5" d="M431.39,76.19c0,0,83.33,23.06,84.07,26.8c0.58,2.94-14.3,33.53-24.35,46.56
				c-1.44-4.54-4.05-12.18-5.47-13.01c-2.04-1.19-18.65,5.06-18.65,5.06s-12.2-22.45-14.8-25.63c-2.01-2.46-21.07,0.83-29.62,2.45
				C424.88,99.16,428.48,74.2,431.39,76.19z"/>
			<path class="st4" d="M482.42,102.95c5.06,0.37,8.94,4.74,8.67,9.76c-0.28,5.02-4.61,8.78-9.67,8.41
				c-5.06-0.37-8.94-4.74-8.67-9.76C473.03,106.34,477.36,102.57,482.42,102.95z"/>
		</g>
		<g>
			<path class="st4" d="M310.87,83.03c-0.72,13.3,4.84,40.09,9.74,43.87c6.21,4.78,64.83,13.74,68.14,8.55
				c2.8-4.39,13.45-38.49,13.01-50.04c-8.55,6.1-41.77,29.58-46.01,29.25C352.68,114.43,327.46,95.63,310.87,83.03z"/>
			<path class="st13" d="M399.66,81.58c-7.51-0.92-81.26-9.81-86.75-5.62c-0.47,0.36-0.86,0.98-1.17,1.8
				c16.12,12.32,42.48,32.22,44.79,32.4C359.25,110.36,391.98,87.07,399.66,81.58z"/>
			<path class="st5" d="M400.98,81.68l-1.21-0.18c-7.49,5.36-40.51,28.86-43.24,28.65c-2.36-0.18-30.1-21.16-46.06-33.37
				c-0.67,1.38-1.28,2.94-1.71,4.65c16.47,12.53,43.78,32.98,46.98,33.23c4.39,0.34,39.92-24.9,46.84-29.85
				C402.31,83.06,401.79,81.94,400.98,81.68z"/>
			<path class="st11" d="M404.3,76.53c-5.41-3.43-12.6-2.1-16.05,2.98c-3.45,5.08-1.86,11.98,3.56,15.41
				c5.41,3.43,12.6,2.1,16.05-2.98C411.3,86.86,409.71,79.96,404.3,76.53z"/>
		</g>
		<g>
			<g>
				<path class="st3" d="M27.22,162.25c4.89-0.4,9.82-0.79,14.76-1.18c4.96-0.4,9.95-0.8,14.96-1.2c1.24-0.1,2.79,0.79,3.4,1.96
					c2.5,4.74,4.99,9.48,7.41,14.21c2.42,4.73,4.78,9.46,7.12,14.19c0.59,1.18,0.13,2.23-1,2.34c-4.42,0.4-8.82,0.79-13.21,1.18
					c-4.36,0.39-8.7,0.78-13.02,1.18c-1.09,0.1-2.51-0.75-3.23-1.92c-2.91-4.72-5.86-9.46-8.85-14.18c-3-4.73-6.09-9.46-9.15-14.19
					c-0.39-0.61-0.52-1.15-0.36-1.61C26.22,162.56,26.62,162.3,27.22,162.25L27.22,162.25z M56.3,161.24
					c-4.54,0.36-9.07,0.72-13.56,1.09c-4.48,0.36-8.96,0.72-13.4,1.08c-0.61,0.05-1,0.31-1.16,0.78c-0.16,0.46-0.04,1,0.35,1.6
					c2.78,4.31,5.56,8.62,8.27,12.92c2.71,4.3,5.39,8.62,8.03,12.93c0.71,1.16,2.16,2.02,3.23,1.92c3.95-0.36,7.93-0.72,11.91-1.08
					c4.01-0.36,8.04-0.72,12.08-1.09c1.12-0.1,1.57-1.15,0.98-2.33c-2.16-4.31-4.34-8.62-6.56-12.93
					c-2.22-4.31-4.48-8.62-6.77-12.94C59.07,162.03,57.53,161.14,56.3,161.24z"/>
				<path class="st3" d="M37.56,169.88c0,0,3.5-3.73,7.67-3.46c4.17,0.27,10.61,2.57,15.24,10.1c4.62,7.54,5.26,4.47,5.75,5.39
					c0.48,0.92,1.92,3.65,2.87,5.49c0,0-5.23,2.94-8.76-2.6c0,0,0.25,5.75-7.31,4.97c-7.56-0.78-11.54-9.01-10.37-11.24
					c1.16-2.23,7.82-5.3,11.59-2.6c0,0-7.52-6.07-10.59-1.33C41.62,173.03,39.59,171.45,37.56,169.88L37.56,169.88z M55.21,180.28
					c0,0-10.06-0.79-6.94,2.63c3.12,3.42,8.88,0.61,8.41-0.75C56.22,180.8,55.21,180.28,55.21,180.28z"/>
			</g>
			<g>
				<path class="st3" d="M64.96,160.02c5.07-0.4,10.15-0.79,15.26-1.18c5.13-0.39,10.3-0.77,15.47-1.17c1.3-0.1,2.73,0.78,3.19,1.95
					c1.84,4.73,3.67,9.43,5.43,14.13c1.77,4.71,3.49,9.41,5.18,14.12c0.42,1.18-0.18,2.21-1.35,2.31c-4.59,0.38-9.16,0.78-13.7,1.17
					c-4.53,0.39-9.03,0.78-13.52,1.17c-1.11,0.1-2.45-0.74-3.01-1.9c-2.29-4.71-4.6-9.42-6.95-14.12
					c-2.36-4.71-4.78-9.42-7.21-14.12c-0.31-0.59-0.35-1.13-0.11-1.59C63.89,160.34,64.32,160.07,64.96,160.02L64.96,160.02z
					 M94.84,159.04c-4.69,0.36-9.37,0.69-14.02,1.06c-4.65,0.37-9.26,0.72-13.86,1.08c-0.64,0.05-1.08,0.32-1.31,0.78
					c-0.23,0.46-0.2,1,0.1,1.59c2.2,4.29,4.37,8.59,6.5,12.87c2.12,4.28,4.22,8.56,6.29,12.84c0.56,1.16,1.89,2.01,3.03,1.91
					c4.1-0.36,8.22-0.71,12.36-1.07c4.16-0.36,8.34-0.7,12.52-1.06c1.17-0.1,1.78-1.13,1.34-2.3c-1.57-4.29-3.16-8.58-4.79-12.87
					c-1.63-4.28-3.31-8.58-4.99-12.87C97.55,159.82,96.12,158.94,94.84,159.04z"/>
				<path class="st3" d="M70.7,164.67c2.27,3.95,4.54,7.89,6.74,11.83c2.2,3.94,4.36,7.88,6.5,11.83c2.28-0.16,4.58-0.32,6.87-0.48
					c-0.54-0.9-1.08-1.81-1.6-2.72c0,0,9.64,4.8,11.14-0.82c1.5-5.62-8.81-18.69-18.01-10.33c-1.57-3.56-3.14-7.13-4.74-10.7
					C77.6,163.27,72.26,163.88,70.7,164.67L70.7,164.67z M85.4,178.08c0,0,4.11-4.3,7.32-0.76c3.21,3.54-1.05,5.12-3.48,4.26
					C86.81,180.72,85.4,178.08,85.4,178.08z"/>
			</g>
			<g>
				<path class="st3" d="M75.89,203.47c0,0-13-5.86-16.14-1.34c-3.14,4.52-0.54,8,2.35,12.6c2.88,4.58,5.28,8.09,10.74,10.1
					c5.46,2.01,11.91-1.32,11.04-2.22c-0.87-0.9-3.5-3.6-5.27-5.4c0,0-5.69,6.09-11.14-3.05c-5.45-9.14,4.49-7.87,8.31-3.17
					C75.79,208.47,75.83,205.97,75.89,203.47z"/>
				<path class="st3" d="M49.02,197.3c4.39-0.41,8.8-0.81,13.23-1.21c4.45-0.4,8.93-0.81,13.44-1.21c1.11-0.1,2.5,0.78,3.06,1.96
					c2.25,4.73,4.51,9.45,6.69,14.17c2.17,4.71,4.31,9.43,6.41,14.14c0.53,1.18,0.12,2.23-0.88,2.33c-3.93,0.4-7.83,0.8-11.71,1.2
					c-3.86,0.4-7.72,0.8-11.53,1.2c-0.95,0.1-2.23-0.74-2.89-1.9c-2.66-4.72-5.37-9.44-8.11-14.15c-2.75-4.72-5.57-9.45-8.4-14.16
					c-0.36-0.6-0.48-1.14-0.34-1.6C48.13,197.61,48.47,197.35,49.02,197.3L49.02,197.3z M75.11,196.24
					c-4.07,0.37-8.12,0.73-12.16,1.1c-4.02,0.37-8.02,0.73-12.01,1.11c-0.56,0.05-0.9,0.31-1.04,0.77c-0.13,0.46-0.02,1.01,0.34,1.6
					c2.56,4.3,5.1,8.6,7.59,12.9c2.48,4.29,4.93,8.58,7.35,12.88c0.65,1.16,1.94,2.01,2.89,1.91c3.5-0.37,7.02-0.73,10.56-1.1
					c3.55-0.37,7.11-0.71,10.72-1.09c1-0.1,1.39-1.16,0.86-2.33c-1.94-4.3-3.91-8.59-5.9-12.89c-1.99-4.29-4.06-8.6-6.13-12.9
					C77.61,197.03,76.23,196.14,75.11,196.24z"/>
			</g>
			<path class="st13" d="M81.98,194.96c4.54-0.4,9.1-0.81,13.69-1.21c4.61-0.4,9.23-0.81,13.87-1.21c1.16-0.1,2.45,0.79,2.85,1.95
				c1.62,4.72,3.25,9.45,4.8,14.15c1.56,4.71,3.08,9.43,4.56,14.13c0.37,1.19-0.18,2.22-1.21,2.32c-4.07,0.41-8.13,0.8-12.15,1.2
				c-4.01,0.4-8,0.8-11.96,1.2c-0.99,0.1-2.18-0.75-2.69-1.91c-2.06-4.71-4.13-9.42-6.26-14.12c-2.14-4.71-4.34-9.43-6.55-14.14
				c-0.28-0.61-0.32-1.14-0.11-1.6C81.01,195.27,81.4,195.01,81.98,194.96z"/>
		</g>
	</g>
</g>
</svg>
